<?xml version="1.0" encoding="UTF-8"?>
<svg width="70px" height="66px" viewBox="0 0 70 66" version="1.1" xmlns="http://www.w3.org/2000/svg" xmlns:xlink="http://www.w3.org/1999/xlink">
    <!-- Generator: Sketch 52.2 (67145) - http://www.bohemiancoding.com/sketch -->
    <title>server</title>
    <desc>Created with Sketch.</desc>
    <g id="Bimedoc.com" stroke="none" stroke-width="1" fill="none" fill-rule="evenodd">
        <g id="Sécurité" transform="translate(-555.000000, -563.000000)">
            <g id="server" transform="translate(555.000000, 563.000000)">
                <path d="M63.8476562,24.7401818 L16.9469727,24.7401818 C13.5545703,24.7401818 10.7946289,21.9874091 10.7946289,18.6038182 L10.7946289,6.1755 C10.7946289,2.79190909 13.5545703,0.0391363636 16.9469727,0.0391363636 L63.8476562,0.0391363636 C67.2400586,0.0391363636 70,2.79190909 70,6.1755 L70,18.6039545 C70,21.9875455 67.2400586,24.7401818 63.8476562,24.7401818 Z" id="Path" fill="#59FFE6"></path>
                <path d="M63.8476562,0.0391363636 L40.3973828,0.0391363636 L40.3973828,24.7403182 L63.8476562,24.7403182 C67.2400586,24.7403182 70,21.9875455 70,18.6039545 L70,6.1755 C70,2.79190909 67.2400586,0.0391363636 63.8476562,0.0391363636 Z" id="Path" fill="#19E9D7"></path>
                <path d="M26.6214648,17.8701818 C23.5916406,17.8701818 21.1267383,15.4116818 21.1267383,12.3897273 C21.1267383,9.36777273 23.5916406,6.90927273 26.6214648,6.90927273 C29.6512891,6.90927273 32.1161914,9.36777273 32.1161914,12.3897273 C32.1161914,15.4116818 29.6512891,17.8701818 26.6214648,17.8701818 Z" id="Path" fill="#65CAFF"></path>
                <path d="M57.6172461,14.4350455 L36.9533008,14.4350455 C35.8207227,14.4350455 34.9025195,13.5192273 34.9025195,12.3895909 C34.9025195,11.2599545 35.8207227,10.3441364 36.9533008,10.3441364 L57.6172461,10.3441364 C58.7498242,10.3441364 59.6680273,11.2599545 59.6680273,12.3895909 C59.6680273,13.5192273 58.7498242,14.4350455 57.6172461,14.4350455 Z" id="Path" fill="#3A569B"></path>
                <path d="M63.3657227,45.3504545 L20.5559375,45.3504545 C19.4233594,45.3504545 18.5051562,44.4346364 18.5051562,43.305 L18.5051562,40.6900909 C18.5051562,37.578 15.9660156,35.0461364 12.845,35.0461364 C11.7124219,35.0461364 10.7942188,34.1303182 10.7942188,33.0006818 L10.7942188,27.2664545 C10.7942188,23.6177727 13.7704492,20.6494091 17.4284961,20.6494091 L63.3657227,20.6494091 C67.0239063,20.6494091 70,23.6177727 70,27.2664545 L70,38.7335455 C70,42.3820909 67.0237695,45.3504545 63.3657227,45.3504545 Z" id="Path" fill="#19E9D7"></path>
                <path d="M63.3657227,20.6492727 L40.3973828,20.6492727 L40.3973828,45.3504545 L63.3657227,45.3504545 C67.0239063,45.3504545 70,42.3820909 70,38.7334091 L70,27.2663182 C70,23.6177727 67.0237695,20.6492727 63.3657227,20.6492727 Z" id="Path" fill="#05D3C7"></path>
                <path d="M26.6214648,38.4803182 C23.5916406,38.4803182 21.1267383,36.0218182 21.1267383,32.9998636 C21.1267383,29.9779091 23.5916406,27.5194091 26.6214648,27.5194091 C29.6512891,27.5194091 32.1161914,29.9779091 32.1161914,32.9998636 C32.1161914,36.0218182 29.6512891,38.4803182 26.6214648,38.4803182 Z" id="Path" fill="#65CAFF"></path>
                <path d="M57.6172461,35.0453182 L36.9533008,35.0453182 C35.8207227,35.0453182 34.9025195,34.1295 34.9025195,32.9998636 C34.9025195,31.8702273 35.8207227,30.9544091 36.9533008,30.9544091 L57.6172461,30.9544091 C58.7498242,30.9544091 59.6680273,31.8702273 59.6680273,32.9998636 C59.6680273,34.1295 58.7498242,35.0453182 57.6172461,35.0453182 Z" id="Path" fill="#3A569B"></path>
                <path d="M63.3657227,65.9605909 L23.6405859,65.9605909 C22.5080078,65.9605909 21.5898047,65.0447727 21.5898047,63.9151364 L21.5898047,48.2822727 L20.5558008,48.2822727 C19.4232227,48.2822727 18.5050195,47.3664545 18.5050195,46.2368182 L18.5050195,43.305 C18.5050195,42.1753636 19.4232227,41.2595455 20.5558008,41.2595455 L63.3655859,41.2595455 C67.0237695,41.2595455 69.9998633,44.2279091 69.9998633,47.8765909 L69.9998633,59.3436818 C70,62.9922273 67.0237695,65.9605909 63.3657227,65.9605909 Z" id="Path" fill="#59FFE6"></path>
                <path d="M63.3657227,41.2595455 L40.3973828,41.2595455 L40.3973828,65.9607273 L63.3657227,65.9607273 C67.0239063,65.9607273 70,62.9923636 70,59.3436818 L70,47.8765909 C70,44.2279091 67.0237695,41.2595455 63.3657227,41.2595455 Z" id="Path" fill="#19E9D7"></path>
                <path d="M26.6214648,59.091 C24.6698047,59.091 22.8477539,58.0437273 21.8669336,56.358 C21.6855078,56.0461364 21.5899414,55.6918636 21.5899414,55.3313182 L21.5899414,51.8904545 C21.5899414,51.5303182 21.6852344,51.1764545 21.86625,50.8648636 C22.8466602,49.1773636 24.6688477,48.1291364 26.6214648,48.1291364 C29.6511523,48.1291364 32.115918,50.5881818 32.115918,53.6108182 C32.115918,56.6326364 29.6511523,59.091 26.6214648,59.091 Z" id="Path" fill="#65CAFF"></path>
                <path d="M57.6172461,55.6555909 L36.9533008,55.6555909 C35.8207227,55.6555909 34.9025195,54.7397727 34.9025195,53.6101364 C34.9025195,52.4805 35.8207227,51.5646818 36.9533008,51.5646818 L57.6172461,51.5646818 C58.7498242,51.5646818 59.6680273,52.4805 59.6680273,53.6101364 C59.6680273,54.7397727 58.7498242,55.6555909 57.6172461,55.6555909 Z" id="Path" fill="#3A569B"></path>
                <g id="Group" transform="translate(40.332031, 10.227273)" fill="#334A8C">
                    <path d="M17.2852148,0.116863636 L0.0653515625,0.116863636 L0.0653515625,4.20777273 L17.2852148,4.20777273 C18.417793,4.20777273 19.3359961,3.29195455 19.3359961,2.16231818 C19.3359961,1.03268182 18.417793,0.116863636 17.2852148,0.116863636 Z" id="Path"></path>
                    <path d="M17.2852148,20.7271364 L0.0653515625,20.7271364 L0.0653515625,24.8180455 L17.2852148,24.8180455 C18.417793,24.8180455 19.3359961,23.9022273 19.3359961,22.7725909 C19.3359961,21.6429545 18.417793,20.7271364 17.2852148,20.7271364 Z" id="Path"></path>
                    <path d="M17.2852148,41.3374091 L0.0653515625,41.3374091 L0.0653515625,45.4283182 L17.2852148,45.4283182 C18.417793,45.4283182 19.3359961,44.5125 19.3359961,43.3828636 C19.3359961,42.2532273 18.417793,41.3374091 17.2852148,41.3374091 Z" id="Path"></path>
                </g>
                <g id="Group" transform="translate(26.523438, 6.818182)" fill="#35BAFF">
                    <path d="M0.0980273438,0.0909545455 L0.0980273438,11.0518636 C3.12785156,11.0518636 5.59275391,8.59336364 5.59275391,5.57140909 C5.59275391,2.54945455 3.12785156,0.0909545455 0.0980273438,0.0909545455 Z" id="Path"></path>
                    <path d="M0.0980273438,20.7019091 L0.0980273438,31.6628182 C3.12785156,31.6628182 5.59275391,29.2043182 5.59275391,26.1823636 C5.59275391,23.1604091 3.12785156,20.7019091 0.0980273438,20.7019091 Z" id="Path"></path>
                    <path d="M0.0980273438,41.3128636 L0.0980273438,52.2737727 C3.12785156,52.2737727 5.59275391,49.8152727 5.59275391,46.7933182 C5.59275391,43.7715 3.12785156,41.3128636 0.0980273438,41.3128636 Z" id="Path"></path>
                </g>
                <path d="M20.5559375,48.2822727 L5.13556641,48.2822727 C4.00298828,48.2822727 3.08478516,47.3664545 3.08478516,46.2368182 L3.08478516,40.6899545 C3.08478516,35.3221364 7.46306641,30.9550909 12.845,30.9550909 C18.2276172,30.9550909 22.6067187,35.3221364 22.6067187,40.6899545 L22.6067187,46.2368182 C22.6067187,47.3664545 21.6885156,48.2822727 20.5559375,48.2822727 Z M7.18634766,44.1913636 L18.5051562,44.1913636 L18.5051562,40.6899545 C18.5051562,37.5778636 15.9660156,35.046 12.845,35.046 C9.72480469,35.046 7.18634766,37.5778636 7.18634766,40.6899545 C7.18634766,40.6899545 7.18634766,44.1913636 7.18634766,44.1913636 Z" id="Shape" fill="#3A569B" fill-rule="nonzero"></path>
                <path d="M13.0338086,30.9598636 L13.0338086,35.0507727 C16.0674609,35.1507273 18.5050195,37.641 18.5050195,40.6899545 L18.5050195,44.1913636 L13.0338086,44.1913636 L13.0338086,48.2822727 L20.5558008,48.2822727 C21.6883789,48.2822727 22.606582,47.3664545 22.606582,46.2368182 L22.606582,40.6899545 C22.6067188,35.3854091 18.3293359,31.0610455 13.0338086,30.9598636 Z" id="Path" fill="#334A8C"></path>
                <path d="M23.6405859,65.9605909 L2.05078125,65.9605909 C0.918203125,65.9605909 0,65.0447727 0,63.9151364 L0,46.2368182 C0,45.1071818 0.918203125,44.1913636 2.05078125,44.1913636 L23.6405859,44.1913636 C24.7731641,44.1913636 25.6913672,45.1071818 25.6913672,46.2368182 L25.6913672,63.9151364 C25.6913672,65.0449091 24.7731641,65.9605909 23.6405859,65.9605909 Z" id="Path" fill="#FFDC3E"></path>
                <path d="M23.6405859,44.1913636 L13.0338086,44.1913636 L13.0338086,65.9605909 L23.6405859,65.9605909 C24.7731641,65.9605909 25.6913672,65.0447727 25.6913672,63.9151364 L25.6913672,46.2368182 C25.6913672,45.1071818 24.7731641,44.1913636 23.6405859,44.1913636 Z" id="Path" fill="#FFAE23"></path>
            </g>
        </g>
    </g>
</svg>