<?xml version="1.0" encoding="UTF-8"?>
<svg width="117px" height="265px" viewBox="0 0 117 265" version="1.1" xmlns="http://www.w3.org/2000/svg" xmlns:xlink="http://www.w3.org/1999/xlink">
    <!-- Generator: Sketch 55.2 (78181) - https://sketchapp.com -->
    <title>Group</title>
    <desc>Created with Sketch.</desc>
    <g id="Marketing" stroke="none" stroke-width="1" fill="none" fill-rule="evenodd">
        <g id="FB-image" transform="translate(-124.000000, -363.000000)">
            <g id="Group" transform="translate(119.000000, 361.000000)">
                <g id="Head/Front/Chongo" transform="translate(33.503684, 0.000000)">
                    <g id="Head" stroke-width="1" transform="translate(24.617647, 19.375000)" fill="#B28B67">
                        <path d="M3.76662486,21.5563292 C1.66596022,18.1758599 0.24418645,14.0330482 0.481765682,9.39090868 C1.1662976,-3.98438786 14.7471243,-1.04199304 17.3888762,5.70870807 C20.0306282,12.4594092 19.7167194,29.5831224 16.3024903,30.789661 C14.9409009,31.2708268 12.040311,30.0921637 9.08818674,27.6526933 L10.9411765,45.625 L0,45.625 L3.76662486,21.5563292 Z"></path>
                    </g>
                    <path d="M37.6848286,17.7312352 C36.1897891,17.1062352 34.0195169,16.8942777 33.106548,17.0376651 C33.6258863,15.3317775 33.8319674,13.4312133 33.6639616,11.5806786 C33.5006672,9.7825413 32.9146011,8.25147951 32.3725781,6.64711177 C32.1227331,5.90760324 31.8395941,5.17212527 31.4174507,4.60648538 C30.9874199,4.03021486 30.4430587,3.64982997 29.8722437,3.46835363 C29.2880971,3.28259481 28.6772873,3.29806212 28.0922334,3.46664064 C27.8334192,3.54120616 27.6011985,3.70343653 27.3473749,3.7936205 C27.087444,3.88602128 26.9613524,3.6629797 26.7726861,3.43882972 C26.3180164,2.89873356 25.6514722,2.63211146 25.0762599,2.53668775 C24.4308997,2.42967616 23.7612496,2.56313836 23.1457633,2.85399425 C22.5466797,3.13714168 21.9711533,3.59692876 21.5380165,4.26675885 C21.3451623,4.56492014 21.1701068,4.904294 21.0563347,5.27898571 C21.0096741,5.4327519 21.0019614,5.52384274 20.8900389,5.58016994 C20.7865272,5.63231541 20.6654611,5.63382688 20.558634,5.68345325 C19.5256808,6.16309089 18.6425159,7.25728944 18.1616367,8.66219443 C17.8810802,9.48181051 17.7481832,10.9248647 17.7845833,12.5422914 C17.8209834,14.1597181 18.8862535,18.3800459 19.8825972,19.9194208 C20.7719393,21.2934415 22.079167,22.2001683 23.3407464,22.5970785 C22.5033696,23.9092804 21.9459559,25.5490164 21.5337588,27.2166641 C21.0860341,29.0281526 20.8089326,30.9103777 20.7066075,32.8281725 C20.6094126,34.6502917 20.6004086,36.5772057 20.9119907,38.3604299 C21.2034707,40.0280272 21.8268093,41.3960525 22.8674055,42.2639346 C23.3440618,42.6614998 23.8569089,42.9601649 24.3727224,43.2331352 C24.8810674,43.5021252 25.390948,43.7636587 25.9234435,43.9146035 C26.9312342,44.2001693 28.0924428,44.1511475 28.8687456,43.0514069 C29.1485343,42.6549501 29.4562425,42.1567719 29.6603693,41.6724487 C29.7337628,41.4982778 29.7780152,41.3843638 29.6888472,41.2141227 C29.5820201,41.0102263 29.409233,40.8539914 29.2720085,40.6944817 C28.4894586,39.7850343 28.0050546,38.5709264 27.8829415,37.1280836 C27.7590486,35.6641308 28.0458869,33.77455 29.0840751,33.1356545 C30.3656169,32.346973 31.7769496,33.2522387 32.9159971,34.0960886 C33.400087,31.7537238 34.3940576,29.6446785 35.9524216,28.5702297 C37.6764881,27.3815647 39.6548319,27.2424597 41.426571,26.2225748 C41.8882555,25.9568092 42.3584904,25.6551211 42.6984108,25.1136143 C42.8404515,24.8872978 43.0070962,24.5937213 43.0638078,24.2944012 C43.138318,23.9012193 42.9533511,23.5715692 42.8104728,23.2650444 C42.0528761,21.6397681 39.1798682,18.3562352 37.6848286,17.7312352 Z" id="hair" fill="#191847"></path>
                </g>
                <g id="Bottom/Standing/Baggy-Pants" transform="translate(0.000000, 117.310638)">
                    <polygon id="Leg" fill="#997659" points="60.7466667 0 82.9970099 77.4469015 97.9204072 142.921729 103.813333 142.921729 80.9987384 3.17349988e-13"></polygon>
                    <path d="M56.2662047,0 C56.0292703,27.215373 52.5738975,63.8564552 52.0218454,65.5529231 C51.6538106,66.6839017 38.948658,81.0662649 13.9063874,108.700013 L17.965179,114.673103 C47.5127383,90.9806316 62.9701759,77.5543998 64.3374915,74.394408 C66.388465,69.6544203 73.0657281,26.0364327 78.4266667,0 L56.2662047,0 Z" id="Leg" fill="#B28B67"></path>
                    <g id="Accessories/Shoe/Flat-Sneaker" transform="translate(23.346667, 117.828452) rotate(50.000000) translate(-23.346667, -117.828452) translate(9.520000, 105.359833)" fill="#E4E4E4">
                        <path d="M0.888854628,17.2026358 C0.602295805,18.419342 0.459016393,19.3738115 0.459016393,20.0660443 C0.459016393,21.1930981 0.596911438,22.8377501 0.872701528,25 C1.83293562,25 10.4627211,25 26.7620579,25 C27.4348305,21.971567 27.0464672,20.3366135 25.5969679,20.0951395 C24.1474685,19.8536654 22.9433448,19.6356337 21.9845967,19.4410443 L10.6225006,12.5441241 C10.1503869,12.2575457 9.53534557,12.4079519 9.24876726,12.8800655 C9.20519695,12.951844 9.17084053,13.0288243 9.14650911,13.109189 L8.56672076,15.0241844 C7.22486351,15.8766576 6.13446518,16.3028942 5.29552577,16.3028942 C4.86348927,16.3028942 4.32711676,16.1523061 3.68640824,15.8511299 L3.68640612,15.8511344 C2.686773,15.3812394 1.49548508,15.810677 1.02559008,16.8103101 C0.966515,16.9359837 0.920689318,17.0674682 0.888854628,17.2026358 Z" id="shoe"></path>
                    </g>
                    <g id="Accessories/Shoe/Flat-Sneaker" transform="translate(94.293333, 124.062762)" fill="#E4E4E4">
                        <path d="M0.888854628,17.2026358 C0.602295805,18.419342 0.459016393,19.3738115 0.459016393,20.0660443 C0.459016393,21.1930981 0.596911438,22.8377501 0.872701528,25 C1.83293562,25 10.4627211,25 26.7620579,25 C27.4348305,21.971567 27.0464672,20.3366135 25.5969679,20.0951395 C24.1474685,19.8536654 22.9433448,19.6356337 21.9845967,19.4410443 L10.6225006,12.5441241 C10.1503869,12.2575457 9.53534557,12.4079519 9.24876726,12.8800655 C9.20519695,12.951844 9.17084053,13.0288243 9.14650911,13.109189 L8.56672076,15.0241844 C7.22486351,15.8766576 6.13446518,16.3028942 5.29552577,16.3028942 C4.86348927,16.3028942 4.32711676,16.1523061 3.68640824,15.8511299 L3.68640612,15.8511344 C2.686773,15.3812394 1.49548508,15.810677 1.02559008,16.8103101 C0.966515,16.9359837 0.920689318,17.0674682 0.888854628,17.2026358 Z" id="shoe"></path>
                    </g>
                    <polygon id="Pant" fill="#69A1AC" points="75.7066667 136.177826 103.724691 131.996124 82.96 2.84217094e-14 57.8653131 2.84217094e-14"></polygon>
                    <path d="M19.7018477,99.0634787 L38.08,128.979114 C57.4373119,99.9047874 68.7226753,80.9337844 71.9360902,72.0661046 C75.149505,63.1984247 78.0382014,39.1763898 80.6021794,0 L52.3500928,0 C50.9495179,34.4656789 50.0054329,52.5004467 49.5178379,54.1043034 C49.0302429,55.7081601 39.0915795,70.6945518 19.7018477,99.0634787 Z" id="Pant" fill="#89C5CC"></path>
                </g>
                <g id="Body/Lab-Coat" transform="translate(9.055050, 51.167406)">
                    <path d="M86.2563641,55.4404948 L99.9346766,71.4523833 C103.771534,73.2870231 106.946948,75.4153039 109.460916,77.8372259 C110.041209,78.6768777 110.7103,80.3284462 108.153724,79.8073314 C105.597147,79.2862166 102.891039,78.896843 102.475068,80.0731654 C102.059096,81.2494878 103.541246,82.8473792 102.741595,84.411528 C102.208495,85.4542939 100.088719,82.5058579 96.3822675,75.5662199 L82.5180029,66.0121755 L86.2563641,55.4404948 Z M24.3179231,48.5117782 L32.3435726,50.1211323 C23.7287492,75.9296584 19.1102403,89.5787018 18.4880458,91.0682624 C17.0881081,94.4197738 18.7345288,100.257311 19.3781555,103.347564 C16.1254438,104.644513 17.1642499,97.7053387 13.051403,99.4361016 C9.2973871,101.015862 6.19952157,104.597099 2.48151436,100.338613 C2.02440722,99.8150568 1.63935048,98.1030412 3.09224731,97.1055278 C6.71194314,94.6203583 12.0264935,90.0728156 12.8526227,88.3968043 C13.9791974,86.1112633 17.8009642,72.8162547 24.3179231,48.5117782 Z" id="Skin" fill="#B28B67"></path>
                    <path d="M54.8821772,5.12235348 L59.6383584,2.42677106 C68.3866115,25.0190351 80.3712761,46.5702248 98.7741171,64.0493055 L95.4962128,74.2761093 C79.7320775,63.5933525 64.987229,55.5134301 57.7626286,38.0460636 C55.337866,32.1835638 55.3580136,12.344181 54.8821772,5.12235348 Z" id="Coat-Back" fill="#C5CFD6" transform="translate(76.828147, 38.351440) rotate(5.000000) translate(-76.828147, -38.351440) "></path>
                    <path d="M40.78125,68.8235294 C55.0267415,70.9090909 66.239506,70.9090909 74.4195434,68.8235294 C75.4329952,68.5651423 75.5928804,66.222243 75.1228934,64.6321551 C67.8039723,39.8703482 62.7851368,18.2642797 62.7851368,1.06528646 C61.4422069,2.00012951 59.091953,2.14022743 55.734375,1.48558021 C46.7109351,19.2096958 42.5631812,39.5460905 40.78125,68.8235294 Z" id="Shirt" fill="#323337"></path>
                    <path d="M53.4911328,3.61377595e-14 L57.25163,3.61377595e-14 C58.1272234,7.11064123 60.888904,103.399587 69.4144875,134.897851 L23.2839724,134.897851 C24.2840689,106.04282 32.1731759,71.3808814 40.1649135,42.3754665 C33.0982558,51.3045022 26.9390886,66.4340753 21.6874047,87.7641946 L13.0466565,84.701523 C19.4713361,46.4753298 32.6804842,18.378935 52.6741007,0.412338571 C52.717395,0.274235293 52.7604868,0.136787596 52.8033734,3.61377595e-14 L53.136158,3.61377595e-14 C53.2586452,-0.108549369 53.3813844,-0.216722483 53.5043756,-0.324519342 L53.4911328,3.58046925e-14 Z" id="Coat-Front" fill="#DDE3E9"></path>
                </g>
            </g>
        </g>
    </g>
</svg>