<?xml version="1.0" encoding="UTF-8"?>
<svg width="12px" height="9px" viewBox="0 0 12 9" version="1.1" xmlns="http://www.w3.org/2000/svg" xmlns:xlink="http://www.w3.org/1999/xlink">
    <!-- Generator: Sketch 52.2 (67145) - http://www.bohemiancoding.com/sketch -->
    <title>Path</title>
    <desc>Created with Sketch.</desc>
    <g id="Bimedoc.com" stroke="none" stroke-width="1" fill="none" fill-rule="evenodd">
        <g id="Features" transform="translate(-193.000000, -631.000000)" fill="#2F17FD">
            <g id="💊-Activité-pharmaceutique" transform="translate(187.000000, 467.000000)">
                <g id="Group" transform="translate(0.000000, 156.000000)">
                    <path d="M16.8032352,8.43462039 C16.939988,8.29786757 17.0972514,8.22949219 17.27503,8.22949219 C17.4528087,8.22949219 17.6100721,8.29786757 17.7468249,8.43462039 C17.8699025,8.55769793 17.9314403,8.71154255 17.9314403,8.89615885 C17.9314403,9.08077516 17.8699025,9.23461978 17.7468249,9.35769732 L11.2032352,15.9423127 C11.1895599,15.955988 11.1758848,15.9696631 11.1622095,15.9833383 C11.1485343,15.9970136 11.1348592,16.0106887 11.1211839,16.024364 C10.9981064,16.1611168 10.8442617,16.2294922 10.6596454,16.2294922 C10.4750291,16.2294922 10.3211845,16.1611168 10.198107,16.024364 L6.93656851,12.7833383 C6.81349097,12.6602608 6.75195312,12.5064162 6.75195312,12.3217999 C6.75195312,12.1371836 6.81349097,11.983339 6.93656851,11.8602614 C7.07332133,11.7235086 7.23058471,11.6551332 7.40836338,11.6551332 C7.58614205,11.6551332 7.74340543,11.7235086 7.88015825,11.8602614 L10.649389,14.6294922 L16.8032352,8.43462039 Z" id="Check---simple-line-icons"></path>
                </g>
            </g>
        </g>
    </g>
</svg>