<?xml version="1.0" encoding="UTF-8"?>
<svg width="65px" height="66px" viewBox="0 0 65 66" version="1.1" xmlns="http://www.w3.org/2000/svg" xmlns:xlink="http://www.w3.org/1999/xlink">
    <!-- Generator: Sketch 52.2 (67145) - http://www.bohemiancoding.com/sketch -->
    <title>folder</title>
    <desc>Created with Sketch.</desc>
    <g id="Bimedoc.com" stroke="none" stroke-width="1" fill="none" fill-rule="evenodd">
        <g id="Sécurité" transform="translate(-80.000000, -560.000000)">
            <g id="Group-2" transform="translate(80.000000, 560.000000)">
                <g id="folder">
                    <path d="M8.84536082,11.3793103 L8.84536082,61.4482759 C8.84840142,63.9589784 6.87325999,65.9968707 4.43373711,66 C4.43000548,66 4.42641205,66 4.42268041,66 L59.7061856,66 C62.148749,66 64.128866,63.9621078 64.128866,61.4482759 L64.128866,11.3793103 L8.84536082,11.3793103 Z M45.3324742,41.2977931 C45.3321978,43.8837414 43.9123792,46.2476509 41.6649665,47.403931 L36.4871134,50.0689655 L31.3092603,47.403931 C29.0618476,46.2476509 27.642029,43.8837414 27.6417526,41.2977931 L27.6417526,28.4482759 L36.4871134,25.0344828 L45.3324742,28.4482759 L45.3324742,41.2977931 Z" id="Shape" fill="#FFE477" fill-rule="nonzero"></path>
                    <path d="M8.84536082,61.4482759 L8.84536082,11.3793103 L55.2835052,11.3793103 L55.2835052,4.55172414 L33.1701031,4.55172414 L30.9587629,0 L0,0 L0,61.4482759 C0,63.9621078 1.98011695,66 4.42268041,66 C6.86524388,66 8.84536082,63.9621078 8.84536082,61.4482759 Z" id="Path" fill="#FFB655"></path>
                    <path d="M36.4871134,25.0344828 L27.6417526,28.4482759 L27.6417526,41.2977931 C27.642029,43.8837414 29.0618476,46.2476509 31.3092603,47.403931 L36.4871134,50.0689655 L41.6649665,47.403931 C43.9123792,46.2476509 45.3321978,43.8837414 45.3324742,41.2977931 L45.3324742,28.4482759 L36.4871134,25.0344828 Z" id="Path" fill="#FF6243"></path>
                    <path d="M34.2757732,42.1034483 C33.9824942,42.1034483 33.7013776,41.9833966 33.4940644,41.7700345 L30.3661237,38.5519655 L31.9295412,36.942931 L34.2757732,39.3564828 L41.3122577,32.1146897 L42.8756753,33.7237241 L35.057482,41.7700345 C34.8501688,41.9833966 34.5690522,42.1034483 34.2757732,42.1034483 Z" id="Path" fill="#FFFFFF"></path>
                </g>
            </g>
        </g>
    </g>
</svg>