<?xml version="1.0" encoding="UTF-8"?>
<svg width="48px" height="50px" viewBox="0 0 48 50" version="1.1" xmlns="http://www.w3.org/2000/svg" xmlns:xlink="http://www.w3.org/1999/xlink">
    <!-- Generator: Sketch 52.2 (67145) - http://www.bohemiancoding.com/sketch -->
    <title>write</title>
    <desc>Created with Sketch.</desc>
    <g id="Bimedoc.com" stroke="none" stroke-width="1" fill="none" fill-rule="evenodd">
        <g id="Home" transform="translate(-389.000000, -1858.000000)">
            <g id="write" transform="translate(389.000000, 1858.000000)">
                <g id="Group" transform="translate(23.762376, 24.938119) scale(-1, 1) rotate(-180.000000) translate(-23.762376, -24.938119) ">
                    <g id="Path">
                        <g>
                            <g transform="translate(6.806931, 1.856436)" fill="#D2A077">
                                <path d="M0.0601485149,17.4595297 C-0.0496287129,16.1612624 0.512128713,15.7725248 1.39220297,15.1558168 C2.26237624,14.5475248 7.56410891,19.1929455 9.29888614,19.8998762 C11.032302,20.6068069 27.3048267,24.0524752 26.5992574,27.1982673 C25.8938119,30.3454208 20.9751238,30.8101485 17.1886139,30.1680693 C13.3992574,29.5259901 6.15160891,26.1943069 4.03230198,24.3960396 C1.91472772,22.5964109 0.0601485149,17.4595297 0.0601485149,17.4595297"></path>
                                <path d="M12.2012376,15.3516089 C12.2012376,15.3516089 7.1924505,13.7252475 7.1924505,9.50074257 C7.1924505,5.27623762 8.41188119,2.89232673 8.99059406,1.73762376 C9.56794554,0.582920792 11.3660891,-0.53799505 13.8556931,0.539356436 C16.7451733,1.79121287 13.1642327,8.99381188 22.3045792,5.68898515 C26.4909653,4.17524752 30.8351485,2.12784653 35.0595297,3.53589109 C39.0670792,4.87227723 40.610396,9.91336634 40.610396,12.729703 C40.610396,18.4931931 36.3860149,16.9540842 34.9778465,15.5460396 C33.5696782,14.1378713 22.3045792,11.3216584 20.8964109,11.3216584 C19.4883663,11.3215347 12.2012376,15.3516089 12.2012376,15.3516089"></path>
                            </g>
                            <path d="M25.3278465,10.0982673 C25.3278465,10.0982673 25.1589109,11.9513614 23.3917079,12.1668317 C21.9399752,12.3428218 19.6517327,11.8584158 18.4632426,9.48292079 C17.2747525,7.10594059 15.1625,7.50160891 15.2512376,5.52178218 C15.3384901,3.54195545 15.9553218,2.00148515 17.2310644,1.60569307 C18.5068069,1.21002475 20.3106436,1.91410891 20.5318069,4.02623762 C20.7514851,6.13700495 21.0148515,8.07462871 22.3793317,8.90965347 C23.7436881,9.74628713 25.3278465,10.0982673 25.3278465,10.0982673" fill="#E2C196"></path>
                            <path d="M23.4789604,13.1778465 C23.4789604,13.1778465 22.0707921,14.5860149 19.2545792,14.5860149 C16.4383663,14.5860149 9.87066832,11.5824257 11.8618812,5.60915842 C13.2700495,1.38477723 17.2747525,3.36460396 17.8465347,7.54529703 C18.4195545,11.7318069 23.4789604,13.1778465 23.4789604,13.1778465" fill="#D2A077"></path>
                            <path d="M22.0707921,13.1778465 C22.0707921,13.1778465 20.6626238,14.5860149 17.8464109,14.5860149 C15.030198,14.5860149 10.967698,12.4315594 10.8056931,6.13712871 C10.6732673,0.988985149 16.4819307,3.32079208 16.4382426,7.54529703 C16.3945545,11.769802 22.0707921,13.1778465 22.0707921,13.1778465" fill="#E2C196"></path>
                            <path d="M5.17314356,11.769802 C5.17314356,7.12710396 5.81670792,4.32636139 8.59207921,4.80371287 C13.195297,5.5950495 11.4492574,11.3008663 15.4764851,12.9061881 C18.402599,14.0706683 22.6607673,13.7919554 26.769802,11.3529703 C29.477599,9.74628713 27.7033416,15.9941832 24.8871287,17.4023515 C22.0709158,18.8105198 13.6220297,17.4023515 12.2138614,17.4023515 C10.8056931,17.4023515 5.17314356,11.769802 5.17314356,11.769802" fill="#D2A077"></path>
                            <path d="M4.95061881,11.5247525 C2.71027228,7.7720297 4.07190594,3.89257426 7.98935644,4.72908416 C11.7787129,5.53737624 9.87908416,10.4602723 13.6219059,13.1779703 C15.7186881,14.7016089 20.2373762,15.2127475 23.0535891,13.8045792 C25.8699257,12.3964109 26.2951733,15.9941832 23.4788366,17.4023515 C20.6625,18.8105198 11.4533416,17.4375 10.0480198,17.3502475 C7.3585396,17.1826733 4.95061881,11.5247525 4.95061881,11.5247525" fill="#E2C196"></path>
                            <g fill="#3B88C3">
                                <path d="M11.3943069,8.79294554 C10.4381188,7.69740099 8.77512376,7.58341584 7.67821782,8.5394802 L7.40358911,8.78032178 C6.30668317,9.73638614 6.19257426,11.399505 7.15012376,12.4950495 L38.8628713,48.8490099 C39.8190594,49.9459158 41.4834158,50.0600248 42.5789604,49.1038366 L42.8535891,48.8616337 C43.9519802,47.9054455 44.064604,46.2424505 43.1084158,45.1469059 L11.3943069,8.79294554 Z"></path>
                                <path d="M12.9038366,10.5221535 C9.58056931,6.71311881 1.1980198,-0.755693069 0.136262376,0.169554455 C-0.92549505,1.09616337 5.3365099,10.4152228 8.65829208,14.2242574 C11.9815594,18.0346535 10.9971535,14.9875 12.1701733,13.9637376 C13.3417079,12.9413366 16.2256188,14.3298267 12.9038366,10.5221535"></path>
                            </g>
                            <path d="M7.52759901,14.5493812 C7.52759901,13.1412129 10.9367574,11.8528465 12.344802,13.2608911 C13.7528465,14.6689356 17.0493812,16.3967822 21.3836634,14.5858911 C31.5264851,10.3487624 27.7033416,15.9940594 23.4789604,17.4022277 C19.2545792,18.810396 12.2138614,17.4022277 10.8056931,17.4022277 C9.39752475,17.4022277 7.52759901,14.5493812 7.52759901,14.5493812" fill="#D2A077"></path>
                            <path d="M6.85581683,18.7498762 C6.35173267,20.3170792 9.93688119,28.9997525 11.560396,30.3445545 C13.6050743,32.0371287 21.5159653,34.6576733 24.3321782,34.6576733 C27.1483911,34.6576733 47.4173267,24.4430693 47.4173267,17.4023515 C47.4173267,10.3616337 44.6009901,9.48155941 40.552599,8.38180693 C37.3152228,7.50173267 30.5336634,8.04108911 27.5709158,10.8009901 C24.9757426,13.2215347 23.1704208,14.8944307 20.6626238,15.9941832 C16.012995,18.0331683 12.9136139,15.3971535 11.5054455,13.9889851 C8.68910891,11.1726485 3.38329208,14.2128713 7.80767327,19.0300743 C10.9759901,22.4785891 13.7669554,23.5529703 16.4381188,24.4429455 C24.887005,27.2592822 30.5195545,27.2592822 27.7032178,30.075495 C26.7076733,31.0710396 26.1654703,29.5882426 24.7799505,29.3362624 C21.9918317,28.8293317 19.7726485,28.4899752 16.097401,27.2634901 C14.8287129,26.8410891 8.81596535,23.0066832 6.85581683,18.7498762" fill="#F3D2A2"></path>
                            <path d="M16.7142327,26.8720297 C18.2125,27.4184406 24.7434406,28.6068069 28.1413366,29.7840347 C30.8857673,30.7373762 33.2936881,28.8884901 28.0850248,26.9283416 C23.0565594,25.0372525 17.8337871,25.1920792 14.0261139,23.679703 C12.5855198,23.1081683 11.3365099,24.912005 16.7142327,26.8720297" fill="#D2A077"></path>
                            <path d="M29.7972772,38.4920792 C29.7972772,38.4920792 21.4498762,28.9237624 17.9040842,24.887995 C21.0780941,26.1933168 23.9168317,25.9455446 26.6316832,27.5423267 C29.3451733,29.1377475 30.5829208,30.8402228 34.7003713,35.5602723 C36.2282178,37.3134901 29.7972772,38.4920792 29.7972772,38.4920792" fill="#3B88C3"></path>
                        </g>
                    </g>
                </g>
            </g>
        </g>
    </g>
</svg>