<?xml version="1.0" encoding="UTF-8"?>
<svg width="262px" height="167px" viewBox="0 0 262 167" version="1.1" xmlns="http://www.w3.org/2000/svg" xmlns:xlink="http://www.w3.org/1999/xlink">
    <!-- Generator: Sketch 56.2 (81672) - https://sketch.com -->
    <title>Group 2</title>
    <desc>Created with Sketch.</desc>
    <g id="Marketing" stroke="none" stroke-width="1" fill="none" fill-rule="evenodd">
        <g id="Flyer-1---recto" transform="translate(-79.000000, -96.000000)">
            <g id="Group-2" transform="translate(79.000000, 96.000000)">
                <g id="Group">
                    <path d="M214.019749,57.8180369 C155.987485,51.7997468 142.233233,4.48513183 92.3896786,17.1418622 C92.3896786,17.1418622 65.6410645,21.9129386 52.9814306,65.3573194 C40.3217966,108.8017 -18.4156926,110.258396 5.7873626,147.368535 C9.49569932,153.054972 16.0951215,159.296572 26.8874274,165.667456 L231.031533,166 C245.001063,149.514517 258.832248,120.473934 254.026595,95.3727206 C251.380482,81.550357 242.921155,60.8143919 214.019749,57.8180369 Z" id="Fill-11" fill="#C2C9E3"></path>
                    <path d="M63.7327083,0 L34.267956,0 C32.4635713,0 31,1.50857304 31,3.36996857 L31,16.5394961 C31,18.4008916 32.4635713,19.9094647 34.267956,19.9094647 L62.1721414,19.9094647 L66.1469698,23.8535405 C66.4671883,24.1714233 67,23.9378068 67,23.4794802 L67,3.36996857 C67,1.50857304 65.5370931,0 63.7327083,0" id="Fill-15" fill="#C2C9E3"></path>
                    <path d="M159,42.5654858 L159.249506,56.1018254 C159.34233,59.9068057 161.737986,60.1026714 165.16129,59.9730544 C168.083608,59.8628799 170.555629,58.8317043 170.817643,55.6460055 L171,41 L159,42.5654858" id="Fill-21" fill="#D4A181"></path>
                    <path d="M159.204888,52 C159.204888,52 169.359236,50.3689463 170,42 L159,47.9193516 L159.204888,52" id="Fill-22" fill="#84593F"></path>
                    <path d="M171.546617,35 C171.546617,35 177.843258,25.4882233 170.261671,24.3915143 C165.734385,23.73632 164.428319,22.3315618 158.891335,20.4138377 C152.486366,18.1954792 143.673658,25.2886991 153.174487,32.3199048 L168.021533,29.1234732 L171.546617,35" id="Fill-23" fill="#222123"></path>
                    <path d="M157.997855,38.3788804 C158.064879,40.3108139 156.553181,41.9314878 154.621419,41.9978545 C152.688994,42.0648848 151.069128,40.5530522 151.002104,38.6211187 C150.935743,36.6891852 152.447441,35.0685113 154.379203,35.0021446 C156.310964,34.9351143 157.931494,36.4476105 157.997855,38.3788804" id="Fill-24" fill="#84593F"></path>
                    <path d="M164.703408,47.820081 L159.783215,47.9958952 C156.088565,48.1275834 153.023374,45.0739324 153.017366,41.255662 L153,31.8844212 C152.992668,27.0995175 156.661286,23.1709324 161.290446,23.0054602 C166.030412,22.8358512 170.836461,26.6382639 171,31.5341718 L170.837796,41.360461 C170.786398,44.8581291 168.087668,47.6994242 164.703408,47.820081" id="Fill-25" fill="#D4A181"></path>
                    <path d="M169.154078,36 C169.154078,36 163.446898,33.0757621 165.361605,28.2386558 C165.361605,28.2386558 156.983455,23.8029983 153,28.2062582 L153.049488,22 L166.269122,22.8205051 L172,29.2014287 L171.070179,34.5892947 L169.154078,36" id="Fill-26" fill="#222123"></path>
                    <path d="M173.997854,37.3792227 C174.064885,39.3109957 172.553044,40.9308714 170.621099,40.9978961 C168.689154,41.0642573 167.069135,39.5525503 167.002104,37.6207773 C166.935737,35.6890043 168.447578,34.0691286 170.379523,34.0021039 C172.310804,33.9357427 173.931487,35.4474497 173.997854,37.3792227" id="Fill-27" fill="#D4A181"></path>
                    <path d="M169.470502,37.7462481 L169.469788,37.7195567 C169.469074,37.584617 169.489779,36.9951826 169.735383,36.473218 C169.858185,36.2107529 170.032392,35.9683063 170.282993,35.788881 C170.533594,35.6109385 170.864874,35.4893445 171.331092,35.4886031 C171.456036,35.4886031 171.590261,35.4975002 171.734482,35.5167773 C171.863709,35.5345716 171.981513,35.4404103 171.997934,35.3062121 C172.015069,35.1727552 171.923682,35.0504198 171.795169,35.0326255 C171.632385,35.0103827 171.477455,35 171.331092,35 C170.78491,34.9992613 170.347964,35.1490296 170.016685,35.3862862 C169.51691,35.7436539 169.267022,36.275257 169.138509,36.7327175 C169.009995,37.1916607 169,37.5890656 169,37.7195567 L169,37.7647837 C169.005712,37.8997234 169.114948,38.0050061 169.24489,37.9998161 C169.374117,37.9946261 169.4755,37.8804463 169.470502,37.7462481" id="Fill-28" fill="#AB7E62"></path>
                    <path d="M157.16601,37.179393 L157.000769,38.79353 C156.994807,38.8478997 157.023767,38.9016848 157.078279,38.9408544 C157.133644,38.9800239 157.211153,39.0016549 157.290367,38.999901 L158.728985,38.965993 C158.884005,38.9619007 159.004954,38.8730384 158.999844,38.7666375 C158.994733,38.6602366 158.864414,38.5772205 158.710246,38.5807282 L157.58252,38.6076207 L157.725615,37.2062855 C157.736688,37.0998846 157.619997,37.0080992 157.465829,37.0004991 C157.310809,36.9928991 157.177083,37.0729921 157.16601,37.179393" id="Fill-29" fill="#222123"></path>
                    <path d="M156.999449,36.9655693 C157.017571,37.5173659 156.58627,37.9803676 156.034459,37.9993951 C155.482647,38.0184226 155.019633,37.5862272 155.000605,37.0344307 C154.981577,36.4826341 155.413784,36.0196324 155.964689,36.0006049 C156.517407,35.9815774 156.979515,36.4137728 156.999449,36.9655693" id="Fill-30" fill="#222123"></path>
                    <path d="M162.999449,35.9655693 C163.017571,36.5173659 162.58627,36.9803676 162.034459,36.9993951 C161.482647,37.0184226 161.019633,36.5862272 161.000605,36.0344307 C160.981577,35.4826341 161.413784,35.0196324 161.964689,35.0006049 C162.517407,34.9815774 162.979515,35.4137728 162.999449,35.9655693" id="Fill-31" fill="#222123"></path>
                    <path d="M161.954265,33.0236272 C161.954265,33.0236272 160.009523,32.7655255 160,33.9554445 C160,33.9554445 160.008163,34.7609402 161.704625,34.9379465 C163.400408,35.114173 163.839828,34.9317083 163.988116,34.1753378 C164.136403,33.4205268 162.865077,33.0400022 161.954265,33.0236272" id="Fill-32" fill="#222123"></path>
                    <path d="M154.433358,33.0216343 C154.433358,33.0216343 155.873183,32.7715912 155.999183,33.9716309 C155.999183,33.9716309 156.073192,34.7844802 154.812581,34.9534056 C153.551359,35.1214948 153.138495,34.8288022 153.014941,34.1723344 C152.874873,33.4280589 153.74831,33.033342 154.433358,33.0216343" id="Fill-33" fill="#222123"></path>
                    <path d="M158.001186,42 L161.999574,42 C161.999574,42 162.081253,43 159.982877,43 C157.883854,43 158.001186,42 158.001186,42" id="Fill-34" fill="#FFFFFE"></path>
                    <path d="M162.881619,59.6741487 C164.965478,63.0845765 164.060582,67.5157525 160.805277,69.8469482 L152.405593,77.3186073 L133.084954,93.4499648 C129.468784,96.0395778 124.439909,95.3126093 121.714283,91.805615 C118.761066,88.0062012 119.744561,82.9242217 123.733898,79.8830586 C127.131362,77.2927656 132.644124,72.554209 138.249836,67.6021182 C142.485218,63.8611883 149.540542,58.9111377 152.140412,57.2321055 C155.772985,54.8866289 160.631679,55.9930628 162.881619,59.6741487" id="Fill-35" fill="#FFFFFE"></path>
                    <polyline id="Fill-36" fill="#D4A181" points="110.93882 51 114 57.0904293 108.433451 61 105 52.3792612 110.93882 51"></polyline>
                    <path d="M111.392724,52 L112.501885,49.8217743 C112.853606,49.1302529 113.023628,48.372522 112.997359,47.6101095 L112.774067,41.2118643 C112.752906,40.590565 112.237,40.0776086 111.563476,40.0080552 C110.868061,39.9358266 110.225915,40.356491 110.075595,40.9824718 L109,45.4666606 L111.392724,52" id="Fill-37" fill="#D4A181"></path>
                    <path d="M110,46 L104.628507,35.4651275 C104.400213,35.0444691 103.908657,34.8815879 103.497597,35.0912089 C103.070701,35.3100363 102.883316,35.8539178 103.07532,36.3177751 L106.29584,45.2273766 L110,46" id="Fill-38" fill="#D4A181"></path>
                    <path d="M105,47 L99.405717,37.3710388 C99.1762379,37.0022256 98.7335877,36.8912553 98.3864567,37.115807 C98.0241825,37.3494975 97.8942996,37.8638776 98.0929098,38.2757734 L102.061036,46.4223015 L105,47" id="Fill-39" fill="#D4A181"></path>
                    <path d="M104,50 L98.5239396,40.3918604 C98.2755276,40.0028269 97.7955232,39.8851302 97.4190239,40.1219332 C97.0263519,40.368603 96.8853263,40.9105717 97.1007461,41.3447104 L101.145203,49.8386075 L104,50" id="Fill-40" fill="#D4A181"></path>
                    <path d="M107,46 L101.628026,35.4730517 C101.398878,35.0453749 100.908208,34.8797108 100.498153,35.0925095 C100.07096,35.3150123 99.8837055,35.8681502 100.074768,36.3401889 L104.179761,45.7483847 L107,46" id="Fill-41" fill="#D4A181"></path>
                    <path d="M107.293161,41 L99,45.3256657 C99,45.3256657 100.92323,51.6982158 104.943535,53 L111,51.4307439 L110.860378,44.9218227 L108.099413,42.9138073 L107.293161,41" id="Fill-42" fill="#D4A181"></path>
                    <path d="M113.852153,52 L134.824572,82.1990061 C137.22227,86.3131876 135.828794,91.6767312 131.76325,93.9744893 C127.651753,96.2975438 122.508327,94.5310106 120.537728,90.117488 L105,57.511106 L113.852153,52" id="Fill-43" fill="#FFFFFE"></path>
                    <path d="M115.684497,55.0326727 L107.09796,60.6000186 C107.000642,60.6624107 106.971133,60.7957328 107.030779,60.8975304 C107.091053,60.9993281 107.218508,61.0301958 107.315825,60.9678037 L115.902363,55.3998009 C115.999052,55.3374088 116.029189,55.2040868 115.968915,55.1022891 C115.908641,55.0004915 115.781187,54.9696238 115.684497,55.0326727" id="Fill-44" fill="#222123"></path>
                    <path d="M162.146934,58.7198102 L171.066208,56 L181.402555,58.2057709 C182.848834,58.5146063 183.886916,59.8316176 183.886916,61.3586369 L185,125 L145,125 L148.910728,66.0646018 C149.225338,61.6942381 152.225421,58.0300779 156.341907,56.9875869 L159.392433,56.2154985 L162.146934,58.7198102" id="Fill-45" fill="#FFFFFE"></path>
                    <path d="M159.508825,54.2244942 L158,54.6227211 L161.830144,74 C161.830144,74 171.637837,55.7680704 175,54.8486452 L171.183795,54 L162.263608,56.8333452 L159.508825,54.2244942" id="Fill-46" fill="#2F17FD"></path>
                    <path d="M158.367513,61.710362 L161.176545,58.6519482 L166.628104,64.9267657 C166.718435,65.0306841 166.858651,65.0230804 166.941567,64.9098684 C167.024483,64.7966564 167.018416,64.6209243 166.928084,64.5170058 L161.330917,58.0732153 C161.247327,57.9777454 161.120594,57.9752108 161.034981,58.0681461 L158.076296,61.2904638 C157.983942,61.3910028 157.973831,61.5667349 158.054724,61.6824814 C158.134944,61.7990729 158.275159,61.810901 158.367513,61.710362" id="Fill-47" fill="#222123"></path>
                    <path d="M162.222,58.2165629 L162.119,71.781453 C162.118,71.901619 162.265,71.9993364 162.447,72 C162.629,72.0006569 162.777,71.9035998 162.778,71.7834338 L162.881,58.2185436 C162.882,58.0990379 162.735,58.0006603 162.554,58 C162.372,58 162.223,58.0963969 162.222,58.2165629" id="Fill-48" fill="#222123"></path>
                    <path d="M148.41045,81.7870544 L148.999543,72.2441784 C149.007032,72.1178746 148.921538,72.0089202 148.808587,72.0005925 C148.695012,71.9915708 148.597038,72.0866456 148.588926,72.2129494 L148.000457,81.7558255 C147.992968,81.8814353 148.078462,81.9910836 148.191413,81.9994114 C148.304988,82.0084331 148.402962,81.9126642 148.41045,81.7870544" id="Fill-49" fill="#222123"></path>
                    <path d="M174.681827,55.265544 L175.523457,60.5834949 L171.479445,61.4406463 C171.407171,61.4559278 171.347054,61.5073291 171.318685,61.5774849 C171.290315,61.6476407 171.297745,61.7275211 171.338273,61.7907308 L174.181307,66.2237458 L161.390693,73.6359524 C161.323822,73.6748507 161.281267,73.7457011 161.27789,73.8241923 L159.000221,121.760074 C158.994817,121.885798 159.089382,121.993463 159.211641,122 C159.334576,122.005966 159.439273,121.908721 159.445352,121.782301 L161.716267,73.9728393 L174.607526,66.5015907 L174.714925,66.3564167 L174.684529,66.1765122 L171.890804,61.8212938 L175.822689,60.9877592 C175.939544,60.9627531 176.016547,60.8481421 175.996959,60.726585 L175.121555,55.1919151 C175.101291,55.0668849 174.987138,54.9828369 174.865554,55.0029806 C174.744646,55.0231244 174.662239,55.1405138 174.681827,55.265544" id="Fill-50" fill="#222123"></path>
                    <path d="M157.626123,55.0648544 L153.068438,59.4996677 C153.012469,59.5537341 152.988975,59.631754 153.004868,59.7070363 C153.02076,59.7823186 153.075348,59.8445976 153.1479,59.8712887 L156.527469,61.1264503 L153.346211,64.0364544 C153.256384,64.1185805 153.248783,64.2568263 153.328245,64.3485338 L161.599241,73.9210236 C161.681467,74.0154687 161.825191,74.0271033 161.920545,73.9456615 C162.0159,73.8649041 162.026956,73.722552 161.945421,73.6281069 L153.816075,64.2205539 L157.107199,61.2092609 C157.165932,61.1565633 157.191498,61.0771746 157.176297,61.0005235 C157.161095,60.9238724 157.107199,60.8602246 157.033264,60.8328493 L153.641949,59.5735813 L157.945354,55.3865153 C158.035181,55.298914 158.036563,55.1558776 157.948118,55.0675919 C157.860364,54.9786219 157.71595,54.9772532 157.626123,55.0648544" id="Fill-51" fill="#222123"></path>
                    <polygon id="Fill-52" fill="#2F17FD" points="166 77 177 77 177 75 166 75"></polygon>
                    <path d="M179.416432,57.8579918 C182.764882,55.6475545 187.329037,57.9928424 189.093201,61.6504906 L207.150257,90.8644085 C209.108554,94.9279986 207.571783,99.8507398 203.674196,101.995142 C199.450791,104.319577 194.190202,102.461558 192.265845,97.9656121 C190.558699,93.9777886 186.205646,87.0635685 182.245611,80.6074233 C179.254881,75.7305591 177.714716,74.0046108 176.486793,71.1136646 C174.770823,67.0757934 178.035782,58.7692759 179.416432,57.8579918" id="Fill-53" fill="#FFFFFE"></path>
                    <path d="M184.96534,84.6645446 L179.42723,76.1044024 C179.360666,76.0009787 179.21843,75.9689507 179.109826,76.0330067 C179.001222,76.0963954 178.96759,76.231847 179.034153,76.3352706 L184.572263,84.8954128 C184.639528,84.9988365 184.781764,85.0308645 184.890368,84.9674758 C184.998972,84.9034198 185.032605,84.7679682 184.96534,84.6645446" id="Fill-54" fill="#222123"></path>
                    <path d="M176.044822,113 L169.873684,118.768325 L164.136503,118.609293 C163.500849,118.551047 162.859762,118.644634 162.26146,118.882853 L155.601358,121.536649 C154.639049,121.919503 154,122.902487 154,124 L172.609847,124 L180,118.530105 L176.044822,113" id="Fill-55" fill="#D4A181"></path>
                    <path d="M172,113.405432 L194.010165,88.4782136 C197.24915,85.1331558 202.617583,85.1808256 205.796814,88.5824061 C209.012712,92.0228035 208.664369,97.4707804 205.037655,100.471935 L179.176696,123 L172,113.405432" id="Fill-56" fill="#FFFFFE"></path>
                    <path d="M185.610401,98.0776739 L172.055636,113.920039 C171.985986,114.001921 171.981252,114.123693 172.04414,114.211174 L173.999083,116.907672 C174.072791,117.009849 174.212767,117.030145 174.310819,116.953862 C174.409547,116.877579 174.429157,116.733411 174.355449,116.631234 L172.510054,114.084502 L185.944452,98.3835057 C186.025598,98.2883269 186.016807,98.1420596 185.924842,98.0580783 C185.832876,97.9733972 185.692223,97.9824952 185.610401,98.0776739" id="Fill-57" fill="#222123"></path>
                    <polygon id="Fill-58" fill="#FFFFFE" points="47 166 236 166 236 128 47 128"></polygon>
                    <polygon id="Fill-59" fill="#FFFFFE" points="41 130 241 130 241 123 41 123"></polygon>
                    <polyline id="Fill-60" fill="#2F17FD" points="156 147.032369 148.316217 147.032369 148.316217 139 141.68443 139 141.68443 147.032369 134 147.032369 134 153.966954 141.68443 153.966954 141.68443 162 148.316217 162 148.316217 153.966954 156 153.966954 156 147.032369"></polyline>
                    <polygon id="Fill-61" fill="#2F17FD" points="46 134 236 134 236 130 46 130"></polygon>
                    <path d="M261.777689,166.1705 L0.222311057,166.1705 C0.0993304723,166.1705 0,166.3175 0,166.4995 C0,166.6815 0.0993304723,166.8295 0.222311057,166.8295 L261.777689,166.8295 C261.90067,166.8295 262,166.6815 262,166.4995 C262,166.3175 261.90067,166.1705 261.777689,166.1705" id="Fill-62" fill="#222123"></path>
                    <polyline id="Fill-63" fill="#D4A181" points="56.126837 59 54 73.0040631 65.5574786 75 67 59.8333694 56.126837 59"></polyline>
                    <path d="M61,62.4447375 C61,62.4447375 61,65.8750899 66.4480375,69 L67,62 L61,62.4447375" id="Fill-64" fill="#84593F" transform="translate(64.000000, 65.500000) rotate(5.000000) translate(-64.000000, -65.500000) "></path>
                    <path d="M65.2245674,41.0164231 C65.2245674,41.0164231 75.1196818,40.2723341 74.9989033,48.8012032 C74.94254,52.7375012 74.6674334,56.7167016 74.3862879,59.859975 C74.0883676,63.1929576 70.9682562,65.529129 67.679055,64.8963182 L58,63.0354253 L65.2245674,41.0164231" id="Fill-65" fill="#D4A181"></path>
                    <path d="M74.1485631,54 L75.9685839,58.1981816 C76.0992354,58.6078648 75.804782,59.0303951 75.4108775,58.9982771 L73,58.8034278 L74.1485631,54" id="Fill-66" fill="#D4A181"></path>
                    <path d="M69.8403353,46.5552794 C69.8403353,46.5552794 74.593688,52.86779 68.34664,54.4817075 L64.6007429,55.479095 C64.6007429,55.479095 64.9271887,62.0212006 56.3895336,60.8624213 C56.3895336,60.8624213 53.9741089,54.3648842 51.5881741,51.2687287 C51.5881741,51.2687287 49.2440738,46.7970293 53.9151292,45.3978507 C53.9151292,45.3978507 51.4942181,41.1456171 59.4084715,40.3420348 C67.3220391,39.5384524 67.018225,34.660235 72.1878647,36.3551859 C77.3575044,38.0494616 77.9047812,46.1595657 69.8403353,46.5552794" id="Fill-67" fill="#9B9B9B"></path>
                    <path d="M62.0206612,54.1225041 C61.8124882,56.0440514 63.2009568,57.7710444 65.1225041,57.9792174 C67.0434028,58.1880389 68.7703959,56.7995703 68.9792174,54.878023 C69.1880389,52.9564757 67.7995703,51.2301312 65.878023,51.0206612 C63.9564757,50.8124882 62.2294827,52.2009568 62.0206612,54.1225041" id="Fill-68" fill="#D4A181"></path>
                    <path d="M66.9881525,55.7930914 C66.988893,55.7869046 67,55.6899773 67,55.5346186 C66.9985191,55.199154 66.9518696,54.5887183 66.606812,54.0319019 C66.2661972,53.4723358 65.5805248,52.9931988 64.4624197,53.0000731 C64.388373,53.0000731 64.3128453,53.0021354 64.2358368,53.0062599 C64.0981099,53.0131342 63.9929636,53.1224352 64.0003683,53.2502967 C64.0077729,53.3781582 64.1255072,53.475773 64.263234,53.4688987 C64.3320975,53.4654616 64.397999,53.4633993 64.4624197,53.4633993 C65.4361337,53.470961 65.8944828,53.8291108 66.1751198,54.2642524 C66.4505735,54.7021438 66.5024062,55.2431493 66.5009253,55.5346186 C66.5009253,55.6019865 66.4979634,55.6556059 66.495742,55.6920396 L66.4920397,55.7435966 C66.4772303,55.8707707 66.5757124,55.9848837 66.7134393,55.9986323 C66.8504257,56.0123808 66.9733432,55.9209529 66.9881525,55.7930914" id="Fill-69" fill="#84593F"></path>
                    <path d="M39.6022337,106.955306 C48.8965598,116.102823 65,131.715636 65,131.715636 L61.3691275,139 L31.0435146,118.344698 C27.4152622,115.758025 26.9501857,110.301503 30.0845398,107.071624 C32.7210654,104.356171 36.9074097,104.302859 39.6022337,106.955306" id="Fill-70" fill="#D4A181"></path>
                    <path d="M62.1193878,142.301518 C59.4668323,139.882305 59.2789402,135.77138 61.698135,133.118805 C64.1179983,130.466898 68.2288909,130.279004 70.8814463,132.698217 C73.5326644,135.118099 73.7212252,139.229692 71.3020305,141.88093 C68.8821671,144.532837 64.7712745,144.7214 62.1193878,142.301518" id="Fill-71" fill="#E3696A"></path>
                    <path d="M30.734897,118.417475 L30.734897,118.417475 C34.6731286,121.044687 38.5823877,120.415331 41.2478529,116.420319 L52,95.9949192 L37.2988409,88 C33.5317489,95.2103221 28.4865003,106.219857 28.4865003,106.219857 C26.0582049,110.941425 26.4678618,115.572087 30.734897,118.417475" id="Fill-73" fill="#D4A181"></path>
                    <path d="M50.0496172,95.2998268 L55.5962579,84.8003678 C57.9418751,81.2989593 57.2859978,76.5207828 54.0915595,73.8317392 C50.6429359,70.9295605 45.5585701,71.543771 42.8540642,75.1936251 C40.918041,77.8064031 38.2299979,82.7323442 35.4240813,88.0001186 C35.2851354,88.2609198 35.142897,88.5312541 35,88.8043122 L48.3045623,101 L50.0496172,95.2998268" id="Fill-74" fill="#89CBC1"></path>
                    <path d="M51,73.7431467 L51.6276055,70.9941187 C51.9203946,69.7150759 53.1700019,68.8598979 54.5148708,69.0190166 L64.6882434,70.2195157 C66.0982543,70.3860824 67.1167123,71.6048633 66.98923,72.9726063 L66.611686,77 L51,73.7431467" id="Fill-75" fill="#89CBC1"></path>
                    <path d="M51.6299963,71.0120765 C55.6616498,71.2215723 59.9359617,71.686888 65.0453437,72.7108592 C71.795042,74.0639393 76.4957006,80.3370592 75.958192,87.3326976 L72.9086948,127 L42.4442249,127 C42.4442249,127 40.3911182,91.3822582 41.1807746,81.2020072 C41.6152551,75.5926363 46.1213803,70.7251433 51.6299963,71.0120765" id="Fill-76" fill="#89CBC1"></path>
                    <path d="M51.194146,71.5057469 L66.7422922,73.9973598 C66.8656032,74.0174224 66.9800084,73.9209678 66.9978199,73.7820734 C67.0149465,73.6424072 66.9293138,73.5143156 66.8060028,73.4942531 L51.2578567,71.0026402 C51.1345457,70.9825776 51.0201405,71.0790322 51.0023289,71.2179266 C50.9845173,71.3568211 51.070835,71.4856844 51.194146,71.5057469" id="Fill-77" fill="#222123"></path>
                    <path d="M41.3781241,81.2117167 C41.3781241,81.2151679 41,85.2088608 41,90.130228 C41,91.623894 41.0349765,93.2024587 41.1257263,94.7817137 C41.1332887,94.9073363 41.2779212,95.0046593 41.4499677,94.9998276 C41.6220142,94.9943057 41.7553029,94.8880097 41.7477404,94.7630774 C41.6579359,93.191415 41.6229595,91.6183721 41.6229595,90.130228 C41.6229595,87.6778272 41.7174905,85.4552743 41.8110762,83.8463392 C41.9056072,82.2374042 41.9991929,81.2455381 41.9991929,81.2434674 C42.011482,81.1178449 41.8819745,81.0094782 41.709928,81.0005051 C41.5388268,80.9922223 41.3904131,81.0867844 41.3781241,81.2117167" id="Fill-78" fill="#222123"></path>
                    <path d="M78.6601474,112.370732 C87.1363211,102.313646 105.891293,83 105.891293,83 L109,88.2249674 L90.4217287,120.524214 C88.0862607,124.395434 82.7242727,125.17709 79.347775,122.138739 C76.5068596,119.582858 76.2034543,115.28577 78.6601474,112.370732" id="Fill-79" fill="#D4A181"></path>
                    <path d="M119.767175,70.3657804 C119.427957,69.940571 118.836535,69.8772264 118.424579,70.222345 L108.303105,78.5459647 L110.233044,73.8031324 C110.460776,73.2264786 110.190897,72.5639091 109.641622,72.3498482 C109.195676,72.1751046 108.696027,72.3527606 108.436345,72.7786981 L105.56285,76.718438 C105.147495,77.3992099 104.872178,78.1658974 104.755253,78.9689898 L104,84.1428563 L107.398977,89 L112.44034,85.3791672 L113.925693,84.1363034 C114.79991,83.4045646 115.415804,82.3750336 115.671407,81.2180854 L117.160159,74.4657019 L119.706673,71.7892125 C120.073083,71.4055047 120.099595,70.7829807 119.767175,70.3657804" id="Fill-80" fill="#D4A181"></path>
                    <path d="M84.817111,125.41545 L84.817111,125.41545 C89.1616636,123.78737 89.7087112,120.735338 88.3261727,116.070007 L78.848656,95 L66,101.218798 C69.1257968,108.778492 74.3244067,119.738641 74.3244067,119.738641 C75.6041665,124.860087 80.1098494,127.177971 84.817111,125.41545" id="Fill-81" fill="#D4A181"></path>
                    <path d="M80.4219319,92.6888935 L75.7154771,81.7125646 C74.4552751,77.6479641 70.3242029,75.2511715 66.2327427,76.2111149 C61.8163291,77.2473632 59.1146495,81.7793314 60.2654146,86.228863 C61.089212,89.4145942 63.2443789,94.6339881 65.5908924,100.159283 C65.7077145,100.433163 65.828565,100.715219 65.9521011,101 L81,94.0371745 L80.4219319,92.6888935" id="Fill-82" fill="#89CBC1"></path>
                    <path d="M63.3586475,77.0247044 C63.340447,77.0349026 62.5045231,77.4843024 61.6679492,78.5829864 C60.8307253,79.6803106 59.9987015,81.4316781 60,84.0070586 C60,86.0317374 60.5109161,88.5608861 61.9169063,91.689008 L62.1106118,91.593825 L61.9130062,91.6801696 L65.5882112,100.862611 C65.6337125,100.976831 65.7591661,101.030541 65.8683692,100.98227 C65.9775723,100.934678 66.0289238,100.803462 65.9834225,100.689242 L62.3082175,91.5068005 L62.3043174,91.498642 C60.9191278,88.416072 60.4277137,85.9521916 60.4283638,84.0070586 C60.4290138,81.5336599 61.2181363,79.8937925 62.0027087,78.8617367 C62.39532,78.3463886 62.7872812,77.9846932 63.0791395,77.7521746 C63.2253937,77.6365953 63.3462971,77.5529702 63.4294995,77.4992598 L63.5244022,77.4401103 L63.5536531,77.4237932 C63.6589561,77.3673633 63.7005573,77.2320674 63.6472557,77.1219271 C63.5933042,77.0117867 63.4639505,76.9682745 63.3586475,77.0247044" id="Fill-83" fill="#222123"></path>
                    <path d="M41.7620391,131 C41.7620391,131 33.4235758,142.130003 45.7230285,166 L81,166 L72.1383999,131 L41.7620391,131" id="Fill-84" fill="#2F17FD"></path>
                    <polygon id="Fill-85" fill="#222123" points="42 131 73 131 73 127 42 127"></polygon>
                    <path d="M48.2271454,154.8295 L64.7728546,154.8295 C64.8985095,154.8295 65,154.6815 65,154.4995 C65,154.3175 64.8985095,154.1705 64.7728546,154.1705 L48.2271454,154.1705 C48.1014905,154.1705 48,154.3175 48,154.4995 C48,154.6815 48.1014905,154.8295 48.2271454,154.8295" id="Fill-86" fill="#222123"></path>
                    <path d="M56.0162824,154.307976 L60.593208,165.863048 C60.6375257,165.976426 60.7614868,166.02974 60.8693908,165.983175 C60.9772947,165.935934 61.0286775,165.805685 60.9837176,165.692307 L56.406792,154.137235 C56.361832,154.023857 56.2385132,153.969868 56.1306092,154.017108 C56.0227053,154.064349 55.9713225,154.194598 56.0162824,154.307976" id="Fill-87" fill="#222123"></path>
                    <path d="M55.2642969,135.310763 L55.2656409,135.573405 L66.0914121,135.527292 L66.461702,140.808199 L66.46103,140.805526 C66.4677503,140.914459 66.4711104,141.022724 66.4711104,141.130988 C66.4711104,144.038762 64.1129485,146.443306 61.1486132,146.47338 L61.0921625,146.474048 C58.3939521,146.474048 56.1090417,144.48385 55.7595848,141.818001 L55.4974921,141.852084 L55.7616009,141.842728 L55.5284056,135.301406 L55.2642969,135.310763 L55.2656409,135.573405 L55.2642969,135.310763 L55.0001881,135.320119 L55.2327113,141.86144 L55.2347274,141.886168 C55.619802,144.81399 58.1284993,146.999332 61.0921625,147 L61.1539895,146.999332 C64.4106589,146.965248 67,144.326131 67,141.130988 C67,141.012699 66.9966398,140.893742 66.9892475,140.774116 L66.9892475,140.771443 L66.6014847,135.244601 C66.5920763,135.106263 66.4764867,134.999335 66.3367039,135 L55.2629528,135.048121 C55.1917173,135.048121 55.12317,135.077526 55.0734396,135.128317 C55.0237092,135.179776 54.9975,135.248611 55.0001881,135.320119 L55.2642969,135.310763" id="Fill-88" fill="#222123"></path>
                </g>
                <text id="?" font-family="ProximaNova-Bold, Proxima Nova" font-size="16" font-weight="bold" fill="#222123">
                    <tspan x="52.352" y="16">? </tspan>
                </text>
                <text id="💊" font-family="AppleColorEmoji, Apple Color Emoji" font-size="10" font-weight="normal" fill="#222123">
                    <tspan x="36" y="15">💊</tspan>
                </text>
            </g>
        </g>
    </g>
</svg>