<?xml version="1.0" encoding="UTF-8"?>
<svg width="51px" height="66px" viewBox="0 0 51 66" version="1.1" xmlns="http://www.w3.org/2000/svg" xmlns:xlink="http://www.w3.org/1999/xlink">
    <!-- Generator: Sketch 52.2 (67145) - http://www.bohemiancoding.com/sketch -->
    <title>file</title>
    <desc>Created with Sketch.</desc>
    <g id="Bimedoc.com" stroke="none" stroke-width="1" fill="none" fill-rule="evenodd">
        <g id="Sécurité" transform="translate(-1031.000000, -563.000000)">
            <g id="Group-5" transform="translate(650.000000, 560.000000)">
                <g id="file" transform="translate(381.000000, 3.000000)">
                    <path d="M49.4044138,9.59617241 L40.4944138,0.667965517 C40.0627112,0.247073276 39.4859224,0.00796551724 38.8831034,0 L2.27586207,0 C1.018875,0 0,1.018875 0,2.27586207 L0,63.7241379 C0,64.981125 1.018875,66 2.27586207,66 L47.7931034,66 C49.0500905,66 50.0689655,64.981125 50.0689655,63.7241379 L50.0689655,11.204069 C50.0691078,10.60125 49.8301422,10.0230388 49.4044138,9.59617241 Z M34.137931,35.6081379 C34.1376466,38.1940862 32.6764009,40.5579957 30.3634138,41.7142759 L25.0344828,44.3793103 L19.7055517,41.7142759 C17.3925647,40.5579957 15.931319,38.1940862 15.9310345,35.6081379 L15.9310345,22.7586207 L25.0344828,19.3448276 L34.137931,22.7586207 L34.137931,35.6081379 Z" id="Shape" fill="#9BC9FF" fill-rule="nonzero"></path>
                    <path d="M25.0344828,19.3448276 L15.9310345,22.7586207 L15.9310345,35.6081379 C15.931319,38.1940862 17.3925647,40.5579957 19.7055517,41.7142759 L25.0344828,44.3793103 L30.3634138,41.7142759 C32.6764009,40.5579957 34.1376466,38.1940862 34.137931,35.6081379 L34.137931,22.7586207 L25.0344828,19.3448276 Z" id="Path" fill="#FF6243"></path>
                    <g id="Group" transform="translate(5.689655, 5.689655)" fill="#FFFFFF">
                        <polygon id="Path" points="0 0 2.27586207 0 2.27586207 2.27586207 0 2.27586207"></polygon>
                        <polygon id="Path" points="4.55172414 0 27.3103448 0 27.3103448 2.27586207 4.55172414 2.27586207"></polygon>
                        <polygon id="Path" points="0 4.55172414 27.3103448 4.55172414 27.3103448 6.82758621 0 6.82758621"></polygon>
                        <path d="M17.0689655,30.7241379 C16.7671293,30.7241379 16.4778103,30.6040862 16.2644483,30.3907241 L13.0463793,27.1715172 L14.6554138,25.5624828 L17.0689655,27.9771724 L24.3107586,20.7353793 L25.9197931,22.3444138 L17.8734828,30.3907241 C17.6601207,30.6040862 17.3708017,30.7241379 17.0689655,30.7241379 Z" id="Path"></path>
                    </g>
                    <path d="M38.6896552,0 L38.6896552,9.10344828 C38.6896552,10.3604353 39.7085302,11.3793103 40.9655172,11.3793103 L50.0689655,11.3793103 L50.0689655,9.57455172 C50.0689655,9.27271552 49.9489138,8.98339655 49.7355517,8.77003448 L41.298931,0.333413793 C41.085569,0.120051724 40.79625,0 40.4944138,0 L38.6896552,0 Z" id="Path" fill="#1E81CE"></path>
                </g>
            </g>
        </g>
    </g>
</svg>