<?xml version="1.0" encoding="UTF-8"?>
<svg width="50px" height="50px" viewBox="0 0 50 50" version="1.1" xmlns="http://www.w3.org/2000/svg" xmlns:xlink="http://www.w3.org/1999/xlink">
    <!-- Generator: Sketch 52.2 (67145) - http://www.bohemiancoding.com/sketch -->
    <title>medicine</title>
    <desc>Created with Sketch.</desc>
    <g id="Bimedoc.com" stroke="none" stroke-width="1" fill="none" fill-rule="evenodd">
        <g id="Home" transform="translate(-1003.000000, -1858.000000)">
            <g id="medicine" transform="translate(1003.000000, 1858.000000)">
                <path d="M44.8862694,18.9604922 L39.4002591,18.9604922 L43.2792746,15.0814767 C45.2352332,13.1255181 45.2352332,9.95453368 43.2792746,7.99870466 L41.8955959,6.61502591 C39.9397668,4.65906736 36.7687824,4.65906736 34.8128238,6.61502591 L30.9338083,10.4940415 L30.9338083,5.00829016 C30.9338083,2.24222798 28.6915803,0 25.9255181,0 L23.9687824,0 C21.2027202,0 18.9606218,2.24235751 18.9606218,5.00829016 L18.9606218,10.4943005 L15.0813472,6.61515544 C13.1253886,4.65919689 9.95453368,4.65919689 7.99870466,6.61515544 L6.61515544,7.9988342 C4.65919689,9.95466321 4.65906736,13.1255181 6.61502591,15.0813472 L10.494171,18.9606218 L5.00841969,18.9606218 C2.24235751,18.9606218 0.000129533679,21.2028497 0.000129533679,23.9689119 L0.000129533679,25.9253886 C0.000129533679,28.6914508 2.24222798,30.9335492 5.00841969,30.9335492 L10.494171,30.9335492 L6.61502591,34.8128238 C4.65906736,36.7687824 4.65919689,39.9395078 6.61502591,41.8953368 L7.99870466,43.278886 C9.95453368,45.2349741 13.1253886,45.2351036 15.0813472,43.2791451 L18.9604922,39.4 L18.9604922,44.8858808 C18.9604922,47.6520725 21.2025907,49.894171 23.9686528,49.894171 L25.9253886,49.894171 C28.6914508,49.894171 30.9336788,47.6520725 30.9336788,44.8858808 L30.9336788,39.4001295 L34.8125648,43.278886 C36.7683938,45.2349741 39.9395078,45.2349741 41.8953368,43.278886 L43.278886,41.8953368 C45.2348446,39.9395078 45.2348446,36.7686528 43.278886,34.8125648 L39.4,30.9335492 L44.8860104,30.9335492 C47.6520725,30.9335492 49.894171,28.6914508 49.894171,25.9253886 L49.894171,23.9689119 C49.8944301,21.2025907 47.6523316,18.9604922 44.8862694,18.9604922 Z M34.3476684,21.0831606 C34.3476684,21.0831606 33.2812176,22.1891192 31.5433938,21.4150259 C31.5433938,21.4150259 30.6507772,22.2275907 29.2132124,21.4851036 C29.2132124,21.4851036 28.1468912,22.2977979 27.017228,21.5967617 C27.017228,21.5967617 26.3488342,22.0449482 25.7884715,21.9729275 L25.7884715,26.0454663 C25.8183938,26.0413212 25.8503886,26.0369171 25.8784974,26.0330311 C26.1331606,25.9778497 27.0895078,25.7626943 28.2415803,25.4435233 C29.4974093,25.1106218 30.8797927,24.5724093 31.0853627,24.298057 C31.0694301,24.2822539 31.0378238,24.265544 31.0062176,24.2496114 C30.8878238,24.186399 30.6983161,24.1322539 30.4690415,24.0838083 C30.0110104,23.9891192 29.3869171,23.9414508 28.7550518,23.9180052 C27.4988342,23.8716321 27.4506477,23.9225389 27.2541451,23.9259067 C26.9178756,23.9314767 26.3194301,23.7979275 26.3299223,23.2792746 C26.3404145,22.7604922 26.7610104,22.5891192 27.086399,22.5879534 C27.4117876,22.586658 27.3253886,22.5908031 28.0204663,22.5998705 C29.1735751,22.686658 32.7046632,22.4014249 33.1470207,24.257772 C33.1470207,24.3120466 33.1549223,24.3445596 33.1626943,24.3930052 C33.0128238,26.0103627 29.6555699,26.7154145 27.2305699,27.1953368 C28.0520725,27.7660622 28.4944301,28.5006477 28.6680052,29.4487047 C28.7550518,30.459715 27.9492228,31.4234456 26.0830311,32.4957254 C27.4988342,33.4989637 28.4312176,34.4468912 28.3520725,35.5862694 C28.2257772,36.5183938 27.4042746,37.7585492 25.7927461,38.540544 C25.7849741,38.540544 25.7772021,38.540544 25.7772021,38.540544 C25.7772021,38.540544 26.9067358,36.8186528 26.9778497,35.8765544 C27.0423575,35.3985751 26.6759067,34.5268135 25.788601,33.834715 L25.788601,37.1992228 C25.788601,37.6510363 25.4227979,38.017228 24.9715026,38.017228 C24.5203368,38.017228 24.1542746,37.6509067 24.1542746,37.1992228 C24.1542746,37.1869171 24.1555699,37.1751295 24.1560881,37.1632124 L24.1560881,33.6895078 C24.0729275,33.7459845 23.9900259,33.8115285 23.907772,33.8891192 C22.9255181,34.7056995 22.690285,35.3931347 22.7595855,35.8766839 C22.8306995,36.8187824 23.9602332,38.5406736 23.9602332,38.5406736 L23.9524611,38.5406736 C23.9524611,38.5406736 23.9524611,38.5406736 23.9445596,38.5406736 C22.3331606,37.7586788 21.511658,36.5186528 21.3852332,35.586399 C21.3062176,34.4468912 22.238342,33.4990933 23.6602332,32.4958549 C21.7879534,31.4235751 20.9823834,30.459715 21.0693005,29.4488342 C21.2430052,28.4928756 21.6853627,27.7582902 22.5068653,27.1954663 C20.0818653,26.715544 16.7246114,26.0106218 16.5746114,24.3931347 C16.5826425,24.3446891 16.5904145,24.3121762 16.5904145,24.2579016 C17.032772,22.4015544 20.5638601,22.6867876 21.7169689,22.6 C22.4120466,22.5910622 22.1935233,22.5693005 22.7068653,22.6393782 C23.0306995,22.7046632 23.4439119,22.7470207 23.4199482,23.3274611 C23.3959845,23.9076425 22.632513,23.917228 22.4832902,23.9261658 C22.3339378,23.9349741 22.2384715,23.8718912 20.982513,23.9104922 C20.3506477,23.9418394 19.7264249,23.9893782 19.2603627,24.0841969 C19.0392487,24.1326425 18.8417098,24.1867876 18.7313472,24.25 C18.6917098,24.2659326 18.6681347,24.2826425 18.6522021,24.2984456 C18.857772,24.5727979 20.2400259,25.1108808 21.4959845,25.4439119 C22.807513,25.8072539 23.4208549,25.9331606 24.0475389,26.0757772 C24.0831606,26.0839378 24.1202073,26.088342 24.1564767,26.0946891 L24.1564767,21.951943 C23.4339378,22.0257772 22.8784974,21.5970207 22.8784974,21.5970207 C21.7409326,22.298057 20.682513,21.4853627 20.682513,21.4853627 C19.2448187,22.2278497 18.3443005,21.415285 18.3443005,21.415285 C16.6145078,22.1895078 15.548057,21.0834197 15.548057,21.0834197 C13.5497409,21.4467617 12.8148964,19.7869171 12.8148964,19.7869171 C16.5119171,20.1187824 19.5452073,16.4928756 20.3193005,15.8620466 C21.0775907,15.2370466 21.6147668,15.3800518 22.3809585,16.7536269 C22.8756477,17.6358808 23.6571244,17.7591969 24.1567358,17.7409326 L24.1567358,17.6783679 C23.553886,17.375 23.1393782,16.7524611 23.1393782,16.0314767 C23.1393782,15.0130829 23.9650259,14.1874352 24.9834197,14.1874352 C26.0018135,14.1874352 26.8274611,15.0130829 26.8274611,16.0314767 C26.8274611,16.7606218 26.4033679,17.3889896 25.7891192,17.688342 L25.7891192,17.742487 C26.2896373,17.7505181 27.0370466,17.6071244 27.5156736,16.7536269 C28.2817358,15.3800518 28.8111399,15.2370466 29.5773316,15.8620466 C30.3514249,16.4928756 33.3848446,20.1186528 37.0816062,19.7869171 C37.080829,19.7867876 36.3459845,21.4465026 34.3476684,21.0831606 Z" id="Shape" fill="#E74424" fill-rule="nonzero"></path>
                <path d="M22.6875648,29.5787565 C22.6875648,29.9436528 22.8858808,30.3743523 23.3124352,30.7044041 C23.6462435,30.9628238 23.8459845,31.042228 24.1559585,31.236658 L24.1559585,27.9553109 C22.5856218,28.5713731 22.6875648,29.2227979 22.6875648,29.5787565 Z" id="Path" fill="#E74424"></path>
                <path d="M25.788342,31.1545337 C25.9994819,31.0335492 26.2190415,30.8796632 26.4246114,30.7044041 C26.8351036,30.3546632 27.0514249,29.988601 27.0514249,29.6406736 C27.0514249,29.309715 27.140544,28.6479275 25.788342,28.0452073 L25.788342,31.1545337 Z" id="Path" fill="#E74424"></path>
                <path d="M29.5765544,15.8619171 C28.8103627,15.2369171 28.2810881,15.3799223 27.5148964,16.7534974 C27.0362694,17.6069948 26.2888601,17.7502591 25.788342,17.7423575 L25.788342,17.6882124 C26.4024611,17.3888601 26.8266839,16.7604922 26.8266839,16.0313472 C26.8266839,15.0129534 26.0010363,14.1873057 24.9826425,14.1873057 C23.9642487,14.1873057 23.138601,15.0129534 23.138601,16.0313472 C23.138601,16.7522021 23.5531088,17.3748705 24.1559585,17.6782383 L24.1559585,17.7408031 C23.6563472,17.7590674 22.8748705,17.6356218 22.3801813,16.7534974 C21.6141192,15.3799223 21.076943,15.2369171 20.3185233,15.8619171 C19.5444301,16.4927461 16.5111399,20.1185233 12.8141192,19.7867876 C12.8141192,19.7867876 13.5489637,21.4465026 15.5472798,21.0832902 C15.5472798,21.0832902 16.6137306,22.1892487 18.3435233,21.4151554 C18.3435233,21.4151554 19.2440415,22.2277202 20.6817358,21.4852332 C20.6817358,21.4852332 21.7401554,22.2979275 22.8777202,21.5968912 C22.8777202,21.5968912 23.4332902,22.0257772 24.1556995,21.9518135 L24.1556995,26.0945596 C24.1194301,26.0880829 24.082513,26.0836788 24.0467617,26.0756477 C23.4202073,25.9330311 22.8067358,25.8071244 21.4952073,25.4437824 C20.2392487,25.1108808 18.8569948,24.5726684 18.6514249,24.2983161 C18.667487,24.282513 18.6910622,24.2658031 18.7305699,24.2498705 C18.8410622,24.186658 19.038601,24.132513 19.2595855,24.0840674 C19.7256477,23.9893782 20.3498705,23.9417098 20.9817358,23.9103627 C22.2378238,23.8717617 22.3332902,23.9348446 22.482513,23.9260363 C22.6317358,23.9170984 23.3952073,23.907513 23.419171,23.3273316 C23.4431347,22.7470207 23.0299223,22.7045337 22.7060881,22.6392487 C22.1928756,22.569171 22.4112694,22.5909326 21.7161917,22.5998705 C20.5630829,22.686658 17.0319948,22.4014249 16.5896373,24.257772 C16.5896373,24.3120466 16.5818653,24.3445596 16.5738342,24.3930052 C16.7238342,26.0103627 20.0810881,26.7154145 22.5060881,27.1953368 C21.6845855,27.7581606 21.242228,28.4927461 21.0685233,29.4487047 C20.9816062,30.459715 21.7873057,31.4234456 23.659456,32.4957254 C22.2375648,33.4989637 21.3054404,34.4468912 21.384456,35.5862694 C21.5108808,36.5183938 22.3323834,37.7585492 23.9437824,38.540544 C23.9516839,38.540544 23.9516839,38.540544 23.9516839,38.540544 L23.959456,38.540544 C23.959456,38.540544 22.8300518,36.8186528 22.7588083,35.8765544 C22.6895078,35.3931347 22.9247409,34.7055699 23.9069948,33.8889896 C23.9892487,33.811399 24.0721503,33.7458549 24.1553109,33.6893782 L24.1553109,37.1630829 C24.1547927,37.1751295 24.1534974,37.1869171 24.1534974,37.1990933 C24.1534974,37.6507772 24.5194301,38.0170984 24.9707254,38.0170984 C25.4220207,38.0170984 25.7878238,37.6509067 25.7878238,37.1990933 L25.7878238,33.834715 C26.6751295,34.5268135 27.0415803,35.3984456 26.9770725,35.8765544 C26.9059585,36.8186528 25.7764249,38.540544 25.7764249,38.540544 C25.7764249,38.540544 25.7841969,38.540544 25.7919689,38.540544 C27.4034974,37.7585492 28.225,36.5185233 28.3512953,35.5862694 C28.4305699,34.4467617 27.4981865,33.4989637 26.0822539,32.4957254 C27.9484456,31.4234456 28.7542746,30.4595855 28.667228,29.4487047 C28.4936528,28.5007772 28.0512953,27.7661917 27.2297927,27.1953368 C29.6547927,26.7154145 33.0120466,26.0104922 33.1619171,24.3930052 C33.1540155,24.3445596 33.1462435,24.3120466 33.1462435,24.257772 C32.703886,22.4014249 29.1727979,22.686658 28.0196891,22.5998705 C27.3244819,22.5909326 27.4108808,22.586658 27.0856218,22.5879534 C26.7601036,22.5891192 26.3396373,22.7604922 26.3291451,23.2792746 C26.3186528,23.7979275 26.9170984,23.9314767 27.2533679,23.9259067 C27.45,23.9226684 27.4981865,23.8716321 28.7542746,23.9180052 C29.3861399,23.9415803 30.0102332,23.9891192 30.4682642,24.0838083 C30.6975389,24.1322539 30.8870466,24.186399 31.0054404,24.2496114 C31.0370466,24.265544 31.0686528,24.2822539 31.0845855,24.298057 C30.8790155,24.5724093 29.4967617,25.1104922 28.2408031,25.4435233 C27.088601,25.7626943 26.1323834,25.9778497 25.8777202,26.0330311 C25.8494819,26.0367876 25.8176166,26.0411917 25.7876943,26.0454663 L25.7876943,21.9729275 C26.348057,22.0449482 27.0164508,21.5967617 27.0164508,21.5967617 C28.146114,22.2977979 29.2124352,21.4851036 29.2124352,21.4851036 C30.65,22.2275907 31.5426166,21.4150259 31.5426166,21.4150259 C33.2805699,22.1892487 34.3468912,21.0831606 34.3468912,21.0831606 C36.3452073,21.4465026 37.0800518,19.786658 37.0800518,19.786658 C33.3839378,20.1185233 30.3506477,16.4927461 29.5765544,15.8619171 Z M24.1559585,31.2367876 C23.8459845,31.0423575 23.6462435,30.9629534 23.3124352,30.7045337 C22.8858808,30.3743523 22.6875648,29.9437824 22.6875648,29.578886 C22.6875648,29.2229275 22.5856218,28.5715026 24.1559585,27.9555699 L24.1559585,31.2367876 Z M27.0514249,29.6408031 C27.0514249,29.9887306 26.8351036,30.3547927 26.4246114,30.7045337 C26.2190415,30.8797927 25.9994819,31.0336788 25.788342,31.1546632 L25.788342,28.0453368 C27.1406736,28.648057 27.0514249,29.3098446 27.0514249,29.6408031 Z" id="Shape" fill="#F7F1E6" fill-rule="nonzero"></path>
            </g>
        </g>
    </g>
</svg>