<?xml version="1.0" encoding="UTF-8"?>
<svg width="35px" height="50px" viewBox="0 0 35 50" version="1.1" xmlns="http://www.w3.org/2000/svg" xmlns:xlink="http://www.w3.org/1999/xlink">
    <!-- Generator: Sketch 52.2 (67145) - http://www.bohemiancoding.com/sketch -->
    <title>Logo</title>
    <desc>Created with Sketch.</desc>
    <g id="Symbols" stroke="none" stroke-width="1" fill="none" fill-rule="evenodd">
        <g id="Logo">
            <g>
                <path d="M29.7120802,39.3906982 L11.6558611,49.0850719 C7.67735733,51.2211284 2.8395355,49.4895125 0.850283609,45.2173997 C0.291112639,44.0165253 0,42.6923457 0,41.3497274 L0,21.8062729 C0,17.0299055 3.60589949,13.1578947 8.05400194,13.1578947 C9.30434624,13.1578947 10.5375192,13.4704912 11.6558611,14.0709283 L29.7120802,23.7653021 C33.730369,25.9227191 35.3591024,31.1695152 33.3499579,35.4843491 C32.5628296,37.1747843 31.286337,38.5454806 29.7120802,39.3906982 Z" id="Triangle" fill="#BD10E0" style="mix-blend-mode: darken;"></path>
                <path d="M25.5980999,22.4852601 L10.0419726,30.7947233 C6.61433862,32.6256288 2.44636904,31.1413867 0.732552032,27.4795756 C0.250804735,26.4502548 0,25.3152436 0,24.164428 L0,7.41289556 C0,3.31886639 3.1066211,0 6.93883244,0 C8.01605215,0 9.07847805,0.26793979 10.0419726,0.782600207 L25.5980999,9.09206345 C29.0600102,10.941278 30.4632266,15.4385318 28.7322715,19.1369609 C28.0541301,20.5859053 26.9543826,21.7607879 25.5980999,22.4852601 Z" id="Triangle-Copy" fill="#2F17FD" style="mix-blend-mode: darken;"></path>
            </g>
        </g>
    </g>
</svg>