<svg xmlns="http://www.w3.org/2000/svg" viewBox="0 0 233.5 184.1"><style>.st20{fill:#364760}</style><circle cx="92" cy="92" r="92" fill="#e8f6f5"/><path class="st20" d="M128.4 141l-7.5-6.6a1 1 0 0 0-1.4.1l-3.8 3.8-.8.9L90.6 165l-24.4-25.9-.7-.9-3.6-3.8a1 1 0 0 0-1.4-.1l-7.7 6.6c-.4.3-.5.8-.2 1.2L68 174.4c.1.3.4.5.7.5h.2l.6-.2 11.5-8.9 9.7 1.6 9.4-1.6 11.5 8.9.6.2h.2l.7-.5 15.1-31.2v-.1l.3-1c.3-.4.2-.8-.1-1.1zm-47.5 22.8c-.3 0-.6 0-.8.2l-10.9 8.4-14.6-30.1-.1-.3 6.4-5.4 2.9 3 .7.9 23 24.3-6.6-1zm45.6-21.4l-14.5 30-10.8-8.4-.6-.2h-.4l-6.8 1.2 23-24.3.8-.9 3.1-3.1 6.3 5.5-.1.2zm-37.5-25c-3.5 0-6.9-.9-9.8-2.7h-.1A19 19 0 0 1 70 98.5c0-.6.4-1 1-1h36c.6 0 1 .4 1 1 0 6.6-3.3 12.6-8.9 16.1l-.1.1c-3 1.7-6.5 2.7-10 2.7zm-9-4.6c.1 0 .1.1 0 0a16.8 16.8 0 0 0 17.9-.1h.1c4.7-3 7.6-7.9 7.9-13.4H72c.3 5.6 3.2 10.6 8 13.5zm18.5.8zm-55-32v-.2M131 67.1zm1.9-1l.2 2.5-.2-2.5zm7.4 18.8l.1-.8-.1.8z"/><path class="st20" d="M155 86.3c-.5-.4-12.1-9.6-13.5-31.2a55.5 55.5 0 0 0-3.9-16l-.1-.1-.1-.3c-1.1-2.2-2.6-5.2-4.4-8.1a41.7 41.7 0 0 0-27.2-19.9l-.2-.1c-1.9-.4-3.8-.8-5.7-1-2.1-.3-4.1-.4-6.2-.5L88.9 9h-.8l-2.4.1c-5.7.3-10.2.7-14.1 1.6l-.3.1a42.6 42.6 0 0 0-25.6 16.7 54.7 54.7 0 0 0-10.2 27.6c-1.4 21.5-13 30.8-13.5 31.2-.4.3-.5.7-.3 1.1.9 2.4 5.9 14.8 14.4 19.6a27.2 27.2 0 0 0 17.6 3.1l3.1 3.4c11 11.7 22.2 17.4 34.5 17.5h.2c11.2 0 21-5.1 29.3-15.1l4.2-5.8c2.1.4 8.5 1.1 16.3-3.2 8.5-4.7 13.5-17.1 14.4-19.6-.2-.3-.3-.8-.7-1zm-31.6 22.3a59.9 59.9 0 0 1-4.4 6.1 35.2 35.2 0 0 1-27.7 14.4h-.2c-11.7-.1-22.5-5.6-33-16.9a133 133 0 0 1-7.7-9.2c-1.4-1.9-2.7-3.8-4.4-5.5-1.6-1.6-4-2.5-5.3-4.3-1-1.3-1.8-2.6-2.4-4a13 13 0 0 1-1.1-4.2v-.1c-.2-2.2.1-4.2.9-6.1l.4-.8c.3-.6.9-1.3 1.6-1.2.4.1.8.3 1.1.6.8.8 1.5 1.7 1.9 2.8.2.5.2 1.5.7 1.8.7.5 1.8.1 1.6-.9-.2-3.8.5-8 .8-11.8.5-6.3.9-13.7 4.9-18.8 1.1-1.4 3.6-3.9 6.2-5.3s5.1-.5 7.7.5a73.8 73.8 0 0 0 23.1 3.9h1.5c4.5.2 8.5 2.5 11.7 6.6l1.6 2.3c1.4 2 2.9 4.2 5 5.7l1.6 1c3.1 1.7 7.2 2.3 11.2 1.6h.2c1.7-.7 3.3-1.1 4.9-2.1 1.6-1 2.9-2.2 4.7-3l.6 5.4.5 6.6.5 7.3c.1 1.4 1.3 1.5 1.9.7.4-.5.4-1.5.7-2.1.4-.8.9-1.4 1.5-2 .4-.4.8-.7 1.3-.7s1 .3 1.3.7c.7.8 1.1 2.1 1.3 3.1l.2.8c.1.9.2 1.8.1 2.7l-.1.8c-.3 2.8-1.5 5.6-3.5 8.2-.8 1-1.7 1.6-2.7 2.2l-.3.2-1.4.9a22.2 22.2 0 0 0-7.1 8.9l-1.9 3.2zm16.6-3.4a23.4 23.4 0 0 1-14.1 3.1l1.2-2.1c1.3-2.4 2.8-4.8 4.8-6.7 2-2 4.9-2.9 6.6-5.1a20 20 0 0 0 3.9-9.2v-.1a14 14 0 0 0-1-7.1c-.3-.7-1.3-2.9-3.2-3.2h-1.1l-.4.1a5.8 5.8 0 0 0-2.9 2.3l-.2-3.3v-.1l-.1-1.2-.3-3.9-.7-6.9c-.1-.4-.1-.9-.4-1.3-.5-.7-1.4-.9-2.3-.7-1.6.4-3.1 1.7-4.3 2.7l-.5.4a14.4 14.4 0 0 1-15.9-.2 22.8 22.8 0 0 1-4.5-5.2l-1.7-2.3A18.4 18.4 0 0 0 91.7 48c-2.5-.4-5.2-.2-7.8-.4a72.1 72.1 0 0 1-21.5-4.8l-.5-.2c-1.5-.6-3.4-.3-5.6 1-6.8 3.7-10.1 10.5-11.4 17.8-.3 1.7-1 10.5-1.4 15.9-1.1-1.4-2.5-2.7-4.5-2.3-3.3.7-4.2 5.8-4.2 8.5l.1 1.7v.1a19 19 0 0 0 3.9 9.2c.7 1 1.6 1.6 2.2 2.1l1.5.9 1.2.7c.5.3 1 .8 1.5 1.5l.1.1 3.2 4.4c.7 1.2 2 3 3 4.3-2.7.3-8.5.3-14.7-3.1-7.3-4-11.9-14.5-13.2-17.9a45.7 45.7 0 0 0 13.7-32.2 55.7 55.7 0 0 1 9.8-26.5c7-8.9 14.5-13.8 24.4-16h.1l-.2-1 .3 1c3.9-.9 8.3-1.3 13.9-1.5l2.3-.1h2.4l3 .1c2 .1 4 .2 6 .5l5.5 1h.2a39.7 39.7 0 0 1 26 19c1.8 2.8 3.2 5.7 4.3 7.9l.1.2v.1a54 54 0 0 1 3.8 15.4c1.3 20.1 11 29.9 13.8 32.2-1.1 3.1-5.7 13.6-13 17.6z"/><path d="M201 132.7s-.1 0 0 0l-23.9-2.2h-.2l-11.7-1.1-4.4-.4-18-1.6h-.5c-.8 0-2.4 0-2.8-1.7-.4-1.5.8-2.3 1.4-2.7l.3-.2 12.8-9.7c.9-.7 1.2-1.1 1.3-1.7l.2-1.8.1-1 .5-4.9c.5-4.7.9-9.5 1.2-14.3l.1-.9A29.4 29.4 0 0 1 185 57.6l2-.1c9.7-.4 19.4.7 28.8 1.8l3.4.4c1 .1 1.9.5 2.7.8l.2.1A17 17 0 0 1 233.4 78l-1.7 18.6-.5 6.1-.3 4.3c-.3 5.8-.6 11.8-4.1 16.6-3.7 5-10.1 8.4-16.6 8.7l-9.2.4zm-23.5-4.1l23.5 2.1 9.1-.4a20 20 0 0 0 15-7.9c3.2-4.3 3.5-10 3.7-15.5.1-1.5.1-3 .3-4.4l.5-6.1 1.7-18.6c.6-7-3.2-12.9-10-15.4l-.2-.1c-.8-.3-1.5-.6-2.3-.7l-3.4-.4c-9.4-1.1-19-2.2-28.5-1.8l-1.9.1a27.4 27.4 0 0 0-25.7 28.9l-.1.9c-.3 4.8-.8 9.6-1.2 14.3l-.5 4.9-.1 1-.2 1.8c-.1 1.5-1.1 2.4-2.1 3.2l-12.8 9.7-.5.3-.6.5c0 .1.1.2.9.2h.6l18 1.6 4.4.4 11.8 1.1h.1l.5.3zm20.9-9.3h-.1c-3.2-.1-6.7-.1-10.7 0-.5 0-1.2 0-1.8-.6-.5-.5-.6-1.3-.6-1.8v-4.8l.1-7.4-.1-1s-.2-.2-1-.1l-12.3.1a3 3 0 0 1-2-.6c-.6-.6-.6-1.3-.6-2V90.6c0-.6 0-1.4.6-1.9.5-.6 1.3-.6 2-.6h5l7 .1.9-.1.1-1V74.8c0-.7.1-1.5.6-2 .6-.6 1.4-.6 1.9-.6h10.9c.5 0 1.3 0 1.8.6.6.6.5 1.5.5 1.7v13.6h13.3c.7 0 1.5 0 2.1.6.6.6.6 1.4.6 2.2V101c0 .6 0 1.4-.6 1.9-.6.6-1.3.6-2 .6l-12.6-.1-.8.1v.6l.1 12.8c0 .7 0 1.4-.6 1.9-.5.4-1.2.5-1.7.5zm-5.6-2.1l5.6.1h.4v-.5l-.1-12.8c0-.6 0-1.5.6-2.1.6-.6 1.4-.7 2.2-.7l12.6.1h.5V90.5l-.1-.7h-13.6c-.5 0-1.2.1-1.7-.4-.4-.3-.6-.8-.6-1.5V73.8h-11.7v12.8c0 .9-.1 1.9-.7 2.5-.7.7-1.6.7-2.4.7l-12-.1h-.5v11.6h.5l12.2-.1c.9 0 1.8 0 2.5.7s.7 1.7.7 2.4l-.1 7.4v5.2h.3c2 .3 3.7.3 5.4.3zm7.9-29.1z" fill="#73b3bc"/></svg>