<?xml version="1.0" encoding="UTF-8"?>
<svg width="45px" height="50px" viewBox="0 0 45 50" version="1.1" xmlns="http://www.w3.org/2000/svg" xmlns:xlink="http://www.w3.org/1999/xlink">
    <!-- Generator: Sketch 52.2 (67145) - http://www.bohemiancoding.com/sketch -->
    <title>prescription</title>
    <desc>Created with Sketch.</desc>
    <g id="Bimedoc.com" stroke="none" stroke-width="1" fill="none" fill-rule="evenodd">
        <g id="Home" transform="translate(-539.000000, -957.000000)">
            <g id="prescription" transform="translate(539.000000, 957.000000)">
                <path d="M20.3228516,37.9313477 L29.2982422,22.3847656 C30.9592773,19.5076172 34.2422852,18.155957 37.3245117,18.809375 L37.3245117,2.85507812 C37.3246094,1.27792969 36.046582,0 34.4695313,0 L2.89150391,0 C1.31445312,0 0.0364257812,1.27792969 0.0364257812,2.85507812 L0.0364257812,44.603418 C0.0364257812,46.1796875 1.31435547,47.4576172 2.89150391,47.4576172 L22.0728516,47.4576172 C19.2788086,45.1796875 18.4619141,41.1541992 20.3228516,37.9313477 Z" id="Path" fill="#E7ECED"></path>
                <g id="Group" transform="translate(4.199219, 5.859375)" fill="#7383BF">
                    <path d="M6.00673828,1.76777344 L0.921972656,1.76777344 C0.454199219,1.76777344 0.0745117188,1.38896484 0.0745117188,0.9203125 C0.0745117188,0.451660156 0.454199219,0.0728515625 0.921972656,0.0728515625 L6.00673828,0.0728515625 C6.47451172,0.0728515625 6.85419922,0.451660156 6.85419922,0.9203125 C6.85419922,1.38896484 6.47451172,1.76777344 6.00673828,1.76777344 Z" id="Path"></path>
                    <path d="M21.2609375,1.76777344 L16.1761719,1.76777344 C15.7083984,1.76777344 15.3287109,1.38896484 15.3287109,0.9203125 C15.3287109,0.451660156 15.7083984,0.0728515625 16.1761719,0.0728515625 L21.2609375,0.0728515625 C21.7287109,0.0728515625 22.1083984,0.451660156 22.1083984,0.9203125 C22.1083984,1.38896484 21.7288086,1.76777344 21.2609375,1.76777344 Z" id="Path"></path>
                    <path d="M11.9389648,1.76777344 L10.244043,1.76777344 C9.77626953,1.76777344 9.39658203,1.38896484 9.39658203,0.9203125 C9.39658203,0.451660156 9.77626953,0.0728515625 10.244043,0.0728515625 L11.9389648,0.0728515625 C12.4067383,0.0728515625 12.7864258,0.451660156 12.7864258,0.9203125 C12.7864258,1.38896484 12.4067383,1.76777344 11.9389648,1.76777344 Z" id="Path"></path>
                    <path d="M28.040625,1.76777344 L25.4982422,1.76777344 C25.0304687,1.76777344 24.6507813,1.38896484 24.6507813,0.9203125 C24.6507813,0.451660156 25.0304687,0.0728515625 25.4982422,0.0728515625 L28.040625,0.0728515625 C28.5083984,0.0728515625 28.8880859,0.451660156 28.8880859,0.9203125 C28.8880859,1.38896484 28.5083984,1.76777344 28.040625,1.76777344 Z" id="Path"></path>
                    <path d="M28.040625,6.00507812 L22.9558594,6.00507812 C22.4880859,6.00507812 22.1083984,5.62626953 22.1083984,5.15761719 C22.1083984,4.68896484 22.4880859,4.31015625 22.9558594,4.31015625 L28.040625,4.31015625 C28.5083984,4.31015625 28.8880859,4.68896484 28.8880859,5.15761719 C28.8880859,5.62626953 28.5083984,6.00507812 28.040625,6.00507812 Z" id="Path"></path>
                    <path d="M12.7864258,6.00507812 L7.70166016,6.00507812 C7.23388672,6.00507812 6.85419922,5.62626953 6.85419922,5.15761719 C6.85419922,4.68896484 7.23388672,4.31015625 7.70166016,4.31015625 L12.7864258,4.31015625 C13.2541992,4.31015625 13.6338867,4.68896484 13.6338867,5.15761719 C13.6338867,5.62626953 13.2541992,6.00507812 12.7864258,6.00507812 Z" id="Path"></path>
                    <path d="M18.7185547,6.00507812 L17.0236328,6.00507812 C16.5558594,6.00507812 16.1761719,5.62626953 16.1761719,5.15761719 C16.1761719,4.68896484 16.5558594,4.31015625 17.0236328,4.31015625 L18.7185547,4.31015625 C19.1863281,4.31015625 19.5660156,4.68896484 19.5660156,5.15761719 C19.5660156,5.62626953 19.1864258,6.00507812 18.7185547,6.00507812 Z" id="Path"></path>
                    <path d="M3.46435547,6.00507812 L0.921972656,6.00507812 C0.454199219,6.00507812 0.0745117188,5.62626953 0.0745117188,5.15761719 C0.0745117188,4.68896484 0.454199219,4.31015625 0.921972656,4.31015625 L3.46435547,4.31015625 C3.93212891,4.31015625 4.31181641,4.68896484 4.31181641,5.15761719 C4.31181641,5.62626953 3.93212891,6.00507812 3.46435547,6.00507812 Z" id="Path"></path>
                    <path d="M6.00673828,10.2422852 L0.921972656,10.2422852 C0.454199219,10.2422852 0.0745117188,9.86347656 0.0745117188,9.39482422 C0.0745117188,8.92617188 0.454199219,8.54736328 0.921972656,8.54736328 L6.00673828,8.54736328 C6.47451172,8.54736328 6.85419922,8.92617188 6.85419922,9.39482422 C6.85419922,9.86347656 6.47451172,10.2422852 6.00673828,10.2422852 Z" id="Path"></path>
                    <path d="M21.2609375,10.2422852 L16.1761719,10.2422852 C15.7083984,10.2422852 15.3287109,9.86347656 15.3287109,9.39482422 C15.3287109,8.92617188 15.7083984,8.54736328 16.1761719,8.54736328 L21.2609375,8.54736328 C21.7287109,8.54736328 22.1083984,8.92617188 22.1083984,9.39482422 C22.1083984,9.86347656 21.7288086,10.2422852 21.2609375,10.2422852 Z" id="Path"></path>
                    <path d="M11.9389648,10.2422852 L10.244043,10.2422852 C9.77626953,10.2422852 9.39658203,9.86347656 9.39658203,9.39482422 C9.39658203,8.92617188 9.77626953,8.54736328 10.244043,8.54736328 L11.9389648,8.54736328 C12.4067383,8.54736328 12.7864258,8.92617188 12.7864258,9.39482422 C12.7864258,9.86347656 12.4067383,10.2422852 11.9389648,10.2422852 Z" id="Path"></path>
                    <path d="M28.040625,10.2422852 L25.4982422,10.2422852 C25.0304687,10.2422852 24.6507813,9.86347656 24.6507813,9.39482422 C24.6507813,8.92617188 25.0304687,8.54736328 25.4982422,8.54736328 L28.040625,8.54736328 C28.5083984,8.54736328 28.8880859,8.92617188 28.8880859,9.39482422 C28.8880859,9.86347656 28.5083984,10.2422852 28.040625,10.2422852 Z" id="Path"></path>
                    <path d="M12.7864258,14.4795898 L7.70166016,14.4795898 C7.23388672,14.4795898 6.85419922,14.1007813 6.85419922,13.6321289 C6.85419922,13.1634766 7.23388672,12.784668 7.70166016,12.784668 L12.7864258,12.784668 C13.2541992,12.784668 13.6338867,13.1634766 13.6338867,13.6321289 C13.6338867,14.1007813 13.2541992,14.4795898 12.7864258,14.4795898 Z" id="Path"></path>
                    <path d="M22.1083984,14.4795898 L17.0236328,14.4795898 C16.5558594,14.4795898 16.1761719,14.1007813 16.1761719,13.6321289 C16.1761719,13.1634766 16.5558594,12.784668 17.0236328,12.784668 L22.1083984,12.784668 C22.5761719,12.784668 22.9558594,13.1634766 22.9558594,13.6321289 C22.9558594,14.1007813 22.5761719,14.4795898 22.1083984,14.4795898 Z" id="Path"></path>
                    <path d="M3.46435547,14.4795898 L0.921972656,14.4795898 C0.454199219,14.4795898 0.0745117188,14.1007813 0.0745117188,13.6321289 C0.0745117188,13.1634766 0.454199219,12.784668 0.921972656,12.784668 L3.46435547,12.784668 C3.93212891,12.784668 4.31181641,13.1634766 4.31181641,13.6321289 C4.31181641,14.1007813 3.93212891,14.4795898 3.46435547,14.4795898 Z" id="Path"></path>
                    <path d="M12.7864258,18.7168945 L7.70166016,18.7168945 C7.23388672,18.7168945 6.85419922,18.3380859 6.85419922,17.8694336 C6.85419922,17.4007813 7.23388672,17.0219727 7.70166016,17.0219727 L12.7864258,17.0219727 C13.2541992,17.0219727 13.6338867,17.4007813 13.6338867,17.8694336 C13.6338867,18.3380859 13.2541992,18.7168945 12.7864258,18.7168945 Z" id="Path"></path>
                    <path d="M19.5660156,18.7168945 L17.0236328,18.7168945 C16.5558594,18.7168945 16.1761719,18.3380859 16.1761719,17.8694336 C16.1761719,17.4007813 16.5558594,17.0219727 17.0236328,17.0219727 L19.5660156,17.0219727 C20.0337891,17.0219727 20.4134766,17.4007813 20.4134766,17.8694336 C20.4134766,18.3380859 20.0338867,18.7168945 19.5660156,18.7168945 Z" id="Path"></path>
                    <path d="M3.46435547,18.7168945 L0.921972656,18.7168945 C0.454199219,18.7168945 0.0745117188,18.3380859 0.0745117188,17.8694336 C0.0745117188,17.4007813 0.454199219,17.0219727 0.921972656,17.0219727 L3.46435547,17.0219727 C3.93212891,17.0219727 4.31181641,17.4007813 4.31181641,17.8694336 C4.31181641,18.3380859 3.93212891,18.7168945 3.46435547,18.7168945 Z" id="Path"></path>
                    <path d="M6.00673828,22.9541992 L0.921972656,22.9541992 C0.454199219,22.9541992 0.0745117188,22.5753906 0.0745117188,22.1067383 C0.0745117188,21.6380859 0.454199219,21.2592773 0.921972656,21.2592773 L6.00673828,21.2592773 C6.47451172,21.2592773 6.85419922,21.6380859 6.85419922,22.1067383 C6.85419922,22.5753906 6.47451172,22.9541992 6.00673828,22.9541992 Z" id="Path"></path>
                    <path d="M17.8710938,22.9541992 L16.1761719,22.9541992 C15.7083984,22.9541992 15.3287109,22.5753906 15.3287109,22.1067383 C15.3287109,21.6380859 15.7083984,21.2592773 16.1761719,21.2592773 L17.8710938,21.2592773 C18.3388672,21.2592773 18.7185547,21.6380859 18.7185547,22.1067383 C18.7185547,22.5753906 18.3389648,22.9541992 17.8710938,22.9541992 Z" id="Path"></path>
                    <path d="M11.9389648,22.9541992 L10.244043,22.9541992 C9.77626953,22.9541992 9.39658203,22.5753906 9.39658203,22.1067383 C9.39658203,21.6380859 9.77626953,21.2592773 10.244043,21.2592773 L11.9389648,21.2592773 C12.4067383,21.2592773 12.7864258,21.6380859 12.7864258,22.1067383 C12.7864258,22.5753906 12.4067383,22.9541992 11.9389648,22.9541992 Z" id="Path"></path>
                    <path d="M12.7864258,27.1915039 L7.70166016,27.1915039 C7.23388672,27.1915039 6.85419922,26.8126953 6.85419922,26.344043 C6.85419922,25.8753906 7.23388672,25.496582 7.70166016,25.496582 L12.7864258,25.496582 C13.2541992,25.496582 13.6338867,25.8753906 13.6338867,26.344043 C13.6338867,26.8126953 13.2541992,27.1915039 12.7864258,27.1915039 Z" id="Path"></path>
                    <path d="M3.46435547,27.1915039 L0.921972656,27.1915039 C0.454199219,27.1915039 0.0745117188,26.8126953 0.0745117188,26.344043 C0.0745117188,25.8753906 0.454199219,25.496582 0.921972656,25.496582 L3.46435547,25.496582 C3.93212891,25.496582 4.31181641,25.8753906 4.31181641,26.344043 C4.31181641,26.8126953 3.93212891,27.1915039 3.46435547,27.1915039 Z" id="Path"></path>
                    <path d="M10.244043,31.4288086 L0.921972656,31.4288086 C0.454199219,31.4288086 0.0745117188,31.05 0.0745117188,30.5813477 C0.0745117188,30.1126953 0.454199219,29.7338867 0.921972656,29.7338867 L10.244043,29.7338867 C10.7118164,29.7338867 11.0915039,30.1126953 11.0915039,30.5813477 C11.0915039,31.0499023 10.7118164,31.4288086 10.244043,31.4288086 Z" id="Path"></path>
                    <path d="M8.54912109,35.6660156 L0.921972656,35.6660156 C0.454199219,35.6660156 0.0745117188,35.287207 0.0745117188,34.8185547 C0.0745117188,34.3499023 0.454199219,33.9710938 0.921972656,33.9710938 L8.54912109,33.9710938 C9.01689453,33.9710938 9.39658203,34.3499023 9.39658203,34.8185547 C9.39658203,35.287207 9.01689453,35.6660156 8.54912109,35.6660156 Z" id="Path"></path>
                </g>
                <path d="M26.9331055,50 C25.5000977,50 24.0865234,49.6211914 22.812793,48.8796875 C18.8712891,46.5838867 17.515332,41.4822266 19.7899414,37.5084961 L28.6874023,21.9610352 C29.7933594,20.0288086 31.5814453,18.6483398 33.7212891,18.0746094 C35.8500977,17.5068359 38.0712891,17.8017578 39.9780273,18.9119141 C43.9195313,21.2077148 45.2754883,26.309375 43.0008789,30.2831055 L34.103418,45.8305664 C32.9974609,47.762793 31.209375,49.1432617 29.0695313,49.7169922 C28.3626953,49.905957 27.6458008,50 26.9331055,50 Z" id="Path" fill="#DD352E"></path>
                <g id="Group" transform="translate(23.828125, 21.093750)" fill="#F27C7C">
                    <path d="M3.11259766,25.5138672 L2.63037109,25.5138672 C2.16259766,25.5138672 1.78291016,25.1350586 1.78291016,24.6664063 C1.78291016,24.1977539 2.16259766,23.8189453 2.63037109,23.8189453 L3.11259766,23.8189453 C4.25664062,23.8189453 5.32275391,23.1986328 5.89482422,22.1994141 L8.65751953,18.2485352 C8.92617187,17.8646484 9.45410156,17.7722656 9.83798828,18.0400391 C10.2209961,18.3086914 10.3142578,18.8366211 10.0464844,19.2205078 L7.32529297,23.1069336 C6.4921875,24.5664062 4.86259766,25.5138672 3.11259766,25.5138672 Z" id="Path"></path>
                    <path d="M5.98964844,7.71728516 C5.83203125,7.71728516 5.67265625,7.67324219 5.53037109,7.58173828 C5.13710938,7.32753906 5.02529297,6.80292969 5.27949219,6.40966797 L7.79384766,2.52324219 C8.66923828,0.991015625 10.1650391,0.090234375 11.8717773,0.090234375 C12.3395508,0.090234375 12.7192383,0.469042969 12.7192383,0.937695312 C12.7192383,1.40634766 12.3395508,1.78515625 11.8717773,1.78515625 C10.7734375,1.78515625 9.83876953,2.36054687 9.24042969,3.4046875 L6.70234375,7.33007812 C6.54052734,7.58085937 6.26767578,7.71728516 5.98964844,7.71728516 Z" id="Path"></path>
                    <polygon id="Path" points="0.026171875 9.31298828 14.425293 17.4859375 15.2667969 16.0138672 0.867675781 7.84179688"></polygon>
                </g>
            </g>
        </g>
    </g>
</svg>