<?xml version="1.0" encoding="UTF-8"?>
<svg width="100px" height="116px" viewBox="0 0 100 116" version="1.1" xmlns="http://www.w3.org/2000/svg" xmlns:xlink="http://www.w3.org/1999/xlink">
    <!-- Generator: Sketch 55.2 (78181) - https://sketchapp.com -->
    <title>prescription</title>
    <desc>Created with Sketch.</desc>
    <g id="Bimedoc.com" stroke="none" stroke-width="1" fill="none" fill-rule="evenodd">
        <g id="Home" transform="translate(-682.000000, -977.000000)">
            <g id="Group-12" transform="translate(21.000000, 932.000000)">
                <g id="Group-8" transform="translate(476.000000, 0.000000)">
                    <g id="Group-7" transform="translate(61.000000, 45.027237)">
                        <g id="prescription" transform="translate(124.000000, 0.000000)">
                            <path d="M46.0411504,87.9391817 L66.3747788,51.8963362 C70.1378319,45.2260201 77.5754425,42.0923617 84.5581858,43.6072312 L84.5581858,6.61914879 C84.5581858,2.96272339 81.6630531,0 78.0902655,0 L6.55066372,0 C2.97787611,0 0.0825221239,2.96272339 0.0825221239,6.61914879 L0.0825221239,103.407559 C0.0825221239,107.061947 2.97765487,110.02467 6.55066372,110.02467 L50.0057522,110.02467 C43.675885,104.743569 41.8252212,95.4109681 46.0411504,87.9391817 Z" id="Path" fill="#E7ECED"></path>
                            <g id="Group" transform="translate(9.513274, 13.584243)" fill="#7383BF">
                                <path d="M13.6081858,4.0983661 L2.08871681,4.0983661 C1.0289823,4.0983661 0.16880531,3.2201448 0.16880531,2.13363176 C0.16880531,1.04711873 1.0289823,0.168897421 2.08871681,0.168897421 L13.6081858,0.168897421 C14.6679204,0.168897421 15.5280973,1.04711873 15.5280973,2.13363176 C15.5280973,3.2201448 14.6679204,4.0983661 13.6081858,4.0983661 Z" id="Path"></path>
                                <path d="M48.1663717,4.0983661 L36.6469027,4.0983661 C35.5871681,4.0983661 34.7269912,3.2201448 34.7269912,2.13363176 C34.7269912,1.04711873 35.5871681,0.168897421 36.6469027,0.168897421 L48.1663717,0.168897421 C49.2261062,0.168897421 50.0862832,1.04711873 50.0862832,2.13363176 C50.0862832,3.2201448 49.2263274,4.0983661 48.1663717,4.0983661 Z" id="Path"></path>
                                <path d="M27.0475664,4.0983661 L23.2077434,4.0983661 C22.1480088,4.0983661 21.2878319,3.2201448 21.2878319,2.13363176 C21.2878319,1.04711873 22.1480088,0.168897421 23.2077434,0.168897421 L27.0475664,0.168897421 C28.1073009,0.168897421 28.9674779,1.04711873 28.9674779,2.13363176 C28.9674779,3.2201448 28.1073009,4.0983661 27.0475664,4.0983661 Z" id="Path"></path>
                                <path d="M63.5256637,4.0983661 L57.7659292,4.0983661 C56.7061947,4.0983661 55.8460177,3.2201448 55.8460177,2.13363176 C55.8460177,1.04711873 56.7061947,0.168897421 57.7659292,0.168897421 L63.5256637,0.168897421 C64.5853982,0.168897421 65.4455752,1.04711873 65.4455752,2.13363176 C65.4455752,3.2201448 64.5853982,4.0983661 63.5256637,4.0983661 Z" id="Path"></path>
                                <path d="M63.5256637,13.9220378 L52.0061947,13.9220378 C50.9464602,13.9220378 50.0862832,13.0438165 50.0862832,11.9573035 C50.0862832,10.8707904 50.9464602,9.99256913 52.0061947,9.99256913 L63.5256637,9.99256913 C64.5853982,9.99256913 65.4455752,10.8707904 65.4455752,11.9573035 C65.4455752,13.0438165 64.5853982,13.9220378 63.5256637,13.9220378 Z" id="Path"></path>
                                <path d="M28.9674779,13.9220378 L17.4480088,13.9220378 C16.3882743,13.9220378 15.5280973,13.0438165 15.5280973,11.9573035 C15.5280973,10.8707904 16.3882743,9.99256913 17.4480088,9.99256913 L28.9674779,9.99256913 C30.0272124,9.99256913 30.8873894,10.8707904 30.8873894,11.9573035 C30.8873894,13.0438165 30.0272124,13.9220378 28.9674779,13.9220378 Z" id="Path"></path>
                                <path d="M42.4066372,13.9220378 L38.5668142,13.9220378 C37.5070796,13.9220378 36.6469027,13.0438165 36.6469027,11.9573035 C36.6469027,10.8707904 37.5070796,9.99256913 38.5668142,9.99256913 L42.4066372,9.99256913 C43.4663717,9.99256913 44.3265487,10.8707904 44.3265487,11.9573035 C44.3265487,13.0438165 43.4665929,13.9220378 42.4066372,13.9220378 Z" id="Path"></path>
                                <path d="M7.84845133,13.9220378 L2.08871681,13.9220378 C1.0289823,13.9220378 0.16880531,13.0438165 0.16880531,11.9573035 C0.16880531,10.8707904 1.0289823,9.99256913 2.08871681,9.99256913 L7.84845133,9.99256913 C8.90818584,9.99256913 9.76836283,10.8707904 9.76836283,11.9573035 C9.76836283,13.0438165 8.90818584,13.9220378 7.84845133,13.9220378 Z" id="Path"></path>
                                <path d="M13.6081858,23.7454831 L2.08871681,23.7454831 C1.0289823,23.7454831 0.16880531,22.8672618 0.16880531,21.7807488 C0.16880531,20.6942357 1.0289823,19.8160144 2.08871681,19.8160144 L13.6081858,19.8160144 C14.6679204,19.8160144 15.5280973,20.6942357 15.5280973,21.7807488 C15.5280973,22.8672618 14.6679204,23.7454831 13.6081858,23.7454831 Z" id="Path"></path>
                                <path d="M48.1663717,23.7454831 L36.6469027,23.7454831 C35.5871681,23.7454831 34.7269912,22.8672618 34.7269912,21.7807488 C34.7269912,20.6942357 35.5871681,19.8160144 36.6469027,19.8160144 L48.1663717,19.8160144 C49.2261062,19.8160144 50.0862832,20.6942357 50.0862832,21.7807488 C50.0862832,22.8672618 49.2263274,23.7454831 48.1663717,23.7454831 Z" id="Path"></path>
                                <path d="M27.0475664,23.7454831 L23.2077434,23.7454831 C22.1480088,23.7454831 21.2878319,22.8672618 21.2878319,21.7807488 C21.2878319,20.6942357 22.1480088,19.8160144 23.2077434,19.8160144 L27.0475664,19.8160144 C28.1073009,19.8160144 28.9674779,20.6942357 28.9674779,21.7807488 C28.9674779,22.8672618 28.1073009,23.7454831 27.0475664,23.7454831 Z" id="Path"></path>
                                <path d="M63.5256637,23.7454831 L57.7659292,23.7454831 C56.7061947,23.7454831 55.8460177,22.8672618 55.8460177,21.7807488 C55.8460177,20.6942357 56.7061947,19.8160144 57.7659292,19.8160144 L63.5256637,19.8160144 C64.5853982,19.8160144 65.4455752,20.6942357 65.4455752,21.7807488 C65.4455752,22.8672618 64.5853982,23.7454831 63.5256637,23.7454831 Z" id="Path"></path>
                                <path d="M28.9674779,33.5691548 L17.4480088,33.5691548 C16.3882743,33.5691548 15.5280973,32.6909335 15.5280973,31.6044205 C15.5280973,30.5179074 16.3882743,29.6396861 17.4480088,29.6396861 L28.9674779,29.6396861 C30.0272124,29.6396861 30.8873894,30.5179074 30.8873894,31.6044205 C30.8873894,32.6909335 30.0272124,33.5691548 28.9674779,33.5691548 Z" id="Path"></path>
                                <path d="M50.0862832,33.5691548 L38.5668142,33.5691548 C37.5070796,33.5691548 36.6469027,32.6909335 36.6469027,31.6044205 C36.6469027,30.5179074 37.5070796,29.6396861 38.5668142,29.6396861 L50.0862832,29.6396861 C51.1460177,29.6396861 52.0061947,30.5179074 52.0061947,31.6044205 C52.0061947,32.6909335 51.1460177,33.5691548 50.0862832,33.5691548 Z" id="Path"></path>
                                <path d="M7.84845133,33.5691548 L2.08871681,33.5691548 C1.0289823,33.5691548 0.16880531,32.6909335 0.16880531,31.6044205 C0.16880531,30.5179074 1.0289823,29.6396861 2.08871681,29.6396861 L7.84845133,29.6396861 C8.90818584,29.6396861 9.76836283,30.5179074 9.76836283,31.6044205 C9.76836283,32.6909335 8.90818584,33.5691548 7.84845133,33.5691548 Z" id="Path"></path>
                                <path d="M28.9674779,43.3928265 L17.4480088,43.3928265 C16.3882743,43.3928265 15.5280973,42.5146052 15.5280973,41.4280922 C15.5280973,40.3415791 16.3882743,39.4633578 17.4480088,39.4633578 L28.9674779,39.4633578 C30.0272124,39.4633578 30.8873894,40.3415791 30.8873894,41.4280922 C30.8873894,42.5146052 30.0272124,43.3928265 28.9674779,43.3928265 Z" id="Path"></path>
                                <path d="M44.3265487,43.3928265 L38.5668142,43.3928265 C37.5070796,43.3928265 36.6469027,42.5146052 36.6469027,41.4280922 C36.6469027,40.3415791 37.5070796,39.4633578 38.5668142,39.4633578 L44.3265487,39.4633578 C45.3862832,39.4633578 46.2464602,40.3415791 46.2464602,41.4280922 C46.2464602,42.5146052 45.3865044,43.3928265 44.3265487,43.3928265 Z" id="Path"></path>
                                <path d="M7.84845133,43.3928265 L2.08871681,43.3928265 C1.0289823,43.3928265 0.16880531,42.5146052 0.16880531,41.4280922 C0.16880531,40.3415791 1.0289823,39.4633578 2.08871681,39.4633578 L7.84845133,39.4633578 C8.90818584,39.4633578 9.76836283,40.3415791 9.76836283,41.4280922 C9.76836283,42.5146052 8.90818584,43.3928265 7.84845133,43.3928265 Z" id="Path"></path>
                                <path d="M13.6081858,53.2164982 L2.08871681,53.2164982 C1.0289823,53.2164982 0.16880531,52.3382769 0.16880531,51.2517639 C0.16880531,50.1652509 1.0289823,49.2870295 2.08871681,49.2870295 L13.6081858,49.2870295 C14.6679204,49.2870295 15.5280973,50.1652509 15.5280973,51.2517639 C15.5280973,52.3382769 14.6679204,53.2164982 13.6081858,53.2164982 Z" id="Path"></path>
                                <path d="M40.4867257,53.2164982 L36.6469027,53.2164982 C35.5871681,53.2164982 34.7269912,52.3382769 34.7269912,51.2517639 C34.7269912,50.1652509 35.5871681,49.2870295 36.6469027,49.2870295 L40.4867257,49.2870295 C41.5464602,49.2870295 42.4066372,50.1652509 42.4066372,51.2517639 C42.4066372,52.3382769 41.5466814,53.2164982 40.4867257,53.2164982 Z" id="Path"></path>
                                <path d="M27.0475664,53.2164982 L23.2077434,53.2164982 C22.1480088,53.2164982 21.2878319,52.3382769 21.2878319,51.2517639 C21.2878319,50.1652509 22.1480088,49.2870295 23.2077434,49.2870295 L27.0475664,49.2870295 C28.1073009,49.2870295 28.9674779,50.1652509 28.9674779,51.2517639 C28.9674779,52.3382769 28.1073009,53.2164982 27.0475664,53.2164982 Z" id="Path"></path>
                                <path d="M28.9674779,63.0401699 L17.4480088,63.0401699 C16.3882743,63.0401699 15.5280973,62.1619486 15.5280973,61.0754356 C15.5280973,59.9889226 16.3882743,59.1107012 17.4480088,59.1107012 L28.9674779,59.1107012 C30.0272124,59.1107012 30.8873894,59.9889226 30.8873894,61.0754356 C30.8873894,62.1619486 30.0272124,63.0401699 28.9674779,63.0401699 Z" id="Path"></path>
                                <path d="M7.84845133,63.0401699 L2.08871681,63.0401699 C1.0289823,63.0401699 0.16880531,62.1619486 0.16880531,61.0754356 C0.16880531,59.9889226 1.0289823,59.1107012 2.08871681,59.1107012 L7.84845133,59.1107012 C8.90818584,59.1107012 9.76836283,59.9889226 9.76836283,61.0754356 C9.76836283,62.1619486 8.90818584,63.0401699 7.84845133,63.0401699 Z" id="Path"></path>
                                <path d="M23.2077434,72.8638416 L2.08871681,72.8638416 C1.0289823,72.8638416 0.16880531,71.9856203 0.16880531,70.8991073 C0.16880531,69.8125943 1.0289823,68.934373 2.08871681,68.934373 L23.2077434,68.934373 C24.2674779,68.934373 25.1276549,69.8125943 25.1276549,70.8991073 C25.1276549,71.9853939 24.2674779,72.8638416 23.2077434,72.8638416 Z" id="Path"></path>
                                <path d="M19.3679204,82.6872869 L2.08871681,82.6872869 C1.0289823,82.6872869 0.16880531,81.8090656 0.16880531,80.7225526 C0.16880531,79.6360396 1.0289823,78.7578183 2.08871681,78.7578183 L19.3679204,78.7578183 C20.4276549,78.7578183 21.2878319,79.6360396 21.2878319,80.7225526 C21.2878319,81.8090656 20.4276549,82.6872869 19.3679204,82.6872869 Z" id="Path"></path>
                            </g>
                            <path d="M61.0165929,115.918873 C57.7701327,115.918873 54.5676991,115.040652 51.6820796,113.321566 L51.6820796,113.321566 C42.7526549,107.999033 39.6807522,96.1714593 44.8338496,86.9588521 L64.9909292,50.913969 C67.4964602,46.4343385 71.5473451,43.2338909 76.3951327,41.9037671 C81.2179204,40.5874539 86.25,41.2711942 90.5696903,43.8449554 C99.499115,49.1674882 102.571018,60.9950622 97.4179204,70.2076693 L77.2608407,106.252552 C74.7553097,110.732183 70.7044248,113.932631 65.8566372,115.262754 C64.2553097,115.700846 62.6311947,115.918873 61.0165929,115.918873 Z" id="Path" fill="#DD352E"></path>
                            <g id="Group" transform="translate(53.982301, 48.903275)" fill="#F27C7C">
                                <path d="M7.05154867,59.1507748 L5.9590708,59.1507748 C4.89933628,59.1507748 4.03915929,58.2725535 4.03915929,57.1860404 C4.03915929,56.0995274 4.89933628,55.2213061 5.9590708,55.2213061 L7.05154867,55.2213061 C9.64336283,55.2213061 12.0586283,53.7831876 13.354646,51.4666213 L19.6134956,42.3069927 C20.2221239,41.4169984 21.4181416,41.2028202 22.2878319,41.8236201 C23.155531,42.4464576 23.3668142,43.6703979 22.760177,44.5603922 L16.595354,53.5705942 C14.7079646,56.9542027 11.0161504,59.1507748 7.05154867,59.1507748 Z" id="Path"></path>
                                <path d="M13.569469,17.89158 C13.2123894,17.89158 12.8513274,17.7894718 12.5289823,17.5773312 C11.6380531,16.9880014 11.3847345,15.7717589 11.9606195,14.8600298 L17.6568584,5.84982783 C19.6400442,2.29754829 23.0287611,0.209197342 26.895354,0.209197342 C27.9550885,0.209197342 28.8152655,1.08741865 28.8152655,2.17393168 C28.8152655,3.26044472 27.9550885,4.13866602 26.895354,4.13866602 C24.4070796,4.13866602 22.2896018,5.47263868 20.9340708,7.89335078 L15.1840708,16.993888 C14.8174779,17.5752936 14.1993363,17.89158 13.569469,17.89158 Z" id="Path"></path>
                                <polygon id="Path" points="0.0592920354 21.5910222 32.6803097 40.5390035 34.5867257 37.1261888 1.96570796 18.1802452"></polygon>
                            </g>
                        </g>
                    </g>
                </g>
            </g>
        </g>
    </g>
</svg>