<svg xmlns="http://www.w3.org/2000/svg" viewBox="0 0 233.3 184.1"><style>.st20{fill:#364760}</style><circle cx="92" cy="92" r="92" fill="#fff2e3"/><path class="st20" d="M128.1 140.5l-7.5-6.6a1 1 0 0 0-1.4.1l-3.8 3.8-.8.9-24.3 25.8-24.4-25.8-.7-.9-3.6-3.8a1 1 0 0 0-1.4-.1l-7.7 6.6c-.4.3-.4.8-.2 1.2l15.6 32.2c.1.3.4.5.7.5h.2l.6-.2 11.5-8.9 9.7 1.6 9.4-1.6 11.5 9 .6.2h.2l.7-.5 15.1-31.2v-.1l.3-1c.2-.6 0-1-.3-1.2zm-47.4 22.7c-.3 0-.5 0-.8.2L69 171.8l-14.6-30.1-.1-.3 6.4-5.4 2.9 3 .7.9 23 24.3-6.6-1zm45.5-21.4l-14.5 30-10.9-8.4-.6-.2h-.4l-6.8 1.2 23-24.3.8-.9 3.1-3.1 6.3 5.5v.2z"/><path d="M200.8 132.1c-.1 0-.1 0 0 0l-23.8-2.2h-.2l-11.7-1.1-4.2-.4-18.2-1.7h-.5c-.8 0-2.4 0-2.8-1.7-.4-1.5.8-2.3 1.4-2.7l.3-.2 12.8-9.7c.9-.7 1.2-1.1 1.3-1.7l.2-1.9.1-.9.5-4.9c.5-4.7.9-9.5 1.2-14.3l.1-.9a29.4 29.4 0 0 1 27.6-30.9l2-.1c9.7-.4 19.4.7 28.8 1.8l3.4.4c1 .1 1.9.5 2.7.8l.2.1a17 17 0 0 1 11.3 17.4l-1.7 18.5-.6 6.1-.3 4.3c-.3 5.8-.6 11.8-4.1 16.6-3.7 5-10.1 8.4-16.6 8.7 0 .2-9.2.6-9.2.6zm-23.5-4.1l23.5 2.1 9.1-.4a20 20 0 0 0 15-7.9c3.2-4.3 3.5-10 3.7-15.5.1-1.5.1-3 .3-4.4l.6-6.1 1.7-18.5c.6-7-3.2-12.9-10-15.4l-.2-.1c-.8-.3-1.5-.6-2.3-.7l-3.4-.4c-9.4-1.1-19-2.2-28.5-1.8l-1.9.1c-9.4.6-16.9 5.4-22.3 14.2a31 31 0 0 0-3.4 14.8l-.1.9c-.3 4.8-.8 9.6-1.2 14.3l-.5 4.9-.1.9-.2 1.9c-.1 1.5-1.1 2.4-2.1 3.2l-12.8 9.7-.5.3-.6.5c0 .1.1.2.9.2h.6l18.2 1.7 4.2.4 11.9 1.1h.4zm20.9-9.3h-.1c-3.2-.1-6.7-.1-10.7 0-.5 0-1.2 0-1.8-.6-.5-.5-.6-1.3-.6-1.8v-4.8l.1-7.4-.1-1-1-.1h-12.2a3 3 0 0 1-2-.6c-.6-.6-.6-1.3-.6-2V89.9c0-.6 0-1.4.6-1.9.5-.6 1.3-.6 2-.6h5a163.4 163.4 0 0 1 7.9 0l.1-1V74.2c0-.7.1-1.5.6-2 .6-.6 1.4-.6 1.9-.6h10.9c.5 0 1.3 0 1.8.6.6.6.5 1.5.5 1.7-.2 2.8-.1 12 0 13.6h13.3c.7 0 1.5 0 2.1.6.6.6.6 1.4.6 2.2v10.1c0 .6 0 1.4-.6 1.9-.6.6-1.3.6-2 .6h-12.6l-.8.1v13.5c0 .7 0 1.4-.6 1.9a5 5 0 0 1-1.7.3zm-5.7-2.1l5.6.1h.4v-13.2c0-.6 0-1.5.6-2.1.6-.6 1.4-.7 2.2-.7h13.1V89.9l-.1-.7h-13.6c-.5 0-1.2.1-1.7-.4-.4-.3-.6-.8-.6-1.5-.1-1.8-.2-11 0-13.9v-.2h-11.7v12.9c0 .9-.1 1.9-.7 2.5-.7.7-1.6.7-2.4.7l-6.9-.1h-5.6v11.6h12.8c.9 0 1.8 0 2.5.7s.7 1.7.7 2.4l-.1 7.4v5.2h.3l5.2.1zm7.9-29.1z" fill="#f29b5f"/><path class="st20" d="M144.4 65c.9-1.9 1.6-3.7 1.6-5.1a14 14 0 0 0-1.9-7.5c-.8-1.6-1.6-3.3-1.9-6-.2-2 .3-3.9.8-6a18 18 0 0 0 .9-7 9.2 9.2 0 0 0-5.1-7.5c-1.3-.5-2.6-.7-3.9-.8l-1.3-.2c-1.8-.3-3-.9-3.6-1.8l-.1-.2a7 7 0 0 1-.6-2.3l-.1-.5c-.4-2.7-1.3-4.9-2.7-6.5a8 8 0 0 0-6.5-3.2c-1.6 0-3 .6-4.4 1.2l-1.8.7c-3.3 1.1-7 .6-9.9-1.3-2.9-1.9-4.6-1.6-7-1.4l-1.8.2-4 .1c-2.2 0-4.4 0-6.7.5-5.9 1.2-8.8 2.7-12.3 4.5a64.6 64.6 0 0 1-8 3.6c-12.9 4.9-21 16.4-24.7 35.3a39 39 0 0 0 .3 20.1 3 3 0 0 0-1 .1c-1.4.5-2.4 2-2.9 3.1-1 2.2-1.3 4.6-1 7.1v.1c.4 3.1 1.7 6.3 3.9 9.2 1.1 1.4 2.4 2.2 3.6 2.9l1.3.8c.5.3 1 .8 1.5 1.5 1.2 1.6 2 3.5 2.9 5.4a29 29 0 0 0 2.9 5.5A46.7 46.7 0 0 0 82.8 130h.3a45.9 45.9 0 0 0 46.5-26.8l.5-1.3c.8-1.9 1.5-3.7 3.1-4.8l1.3-.8c1.3-.8 2.6-1.5 3.6-2.9a19 19 0 0 0 3.9-9.2v-.1c.3-2.5-.1-4.9-1-7.1a6.8 6.8 0 0 0-2-2.7l2-3.6a39 39 0 0 0 3.4-5.7zm-5.2 13.2c.8 1.9 1.1 3.9.9 6.1v.1c-.3 2.8-1.5 5.6-3.5 8.2-.8 1.1-1.9 1.7-3.1 2.4l-1.3.8c-2.1 1.4-3 3.7-3.9 5.7l-.5 1.2a43.7 43.7 0 0 1-44.5 25.7H83a45 45 0 0 1-30.5-19.6c-1.1-1.6-1.9-3.4-2.7-5.2-.9-2-1.8-4-3.1-5.8a7.6 7.6 0 0 0-2-2l-1.3-.8c-1.2-.7-2.2-1.3-3.1-2.4-2-2.6-3.1-5.4-3.5-8.1v-.2c-.2-2.2 0-4.2.9-6.1.5-1.1 1.1-1.8 1.6-2h.3l.8.3c.6.4 1.3 1.2 1.8 1.9.5.8.9 1.7 1 2.4l2-.3c-.1-1.1 1.1-16.9 1.6-19.6.8-4.9 2.1-8.4 4.2-11.1 1.1-1.4 3.6-3.9 6.2-5.3 1.1-.6 2.7-1.3 3.9-.8l.5.2a71.6 71.6 0 0 0 26.9 5c13.4.1 23.6-3.8 26.9-5l.5-.2c1.2-.4 2.8.2 3.9.8 2.6 1.4 5.1 4 6.2 5.3 2.1 2.7 3.4 6.2 4.2 11.1a370 370 0 0 1 1.6 19.4v.1l2 .3c.2-1.6 1.9-4.2 3.3-4.6h.5c.4.2 1 .6 1.6 2.1zm-2.1-4h-.2l-.4.1a5.8 5.8 0 0 0-2.9 2.3c-.4-5.4-1.1-14.2-1.4-15.9-.8-5.2-2.3-9-4.6-12a25.1 25.1 0 0 0-6.8-5.9c-2.2-1.2-4.1-1.5-5.6-1l-.5.2c-3.3 1.2-13.3 5-26.2 4.9H88c-12.7 0-22.5-3.7-25.7-4.9l-.5-.2c-1.5-.6-3.4-.3-5.6.9a25.1 25.1 0 0 0-6.8 5.9 26 26 0 0 0-4.6 12c-.3 1.7-1 10.5-1.4 15.9L43 76l-.4-.4-.1-.1-.4-.4-.1-.1-.7-3.6c-1.7-5.9-.9-12.2.1-17.1C45 36.1 52.7 25.1 64.9 20.5c3.6-1.4 6.1-2.6 8.2-3.7 3.3-1.7 6.1-3.2 11.7-4.3 2-.4 4.1-.4 6.3-.4l4.2-.1 1.9-.2c2.3-.3 3.4-.4 5.7 1a13.6 13.6 0 0 0 13.5.7c1.3-.5 2.4-1 3.7-1.1 1.7-.1 3.6.9 4.9 2.5 1.1 1.4 1.9 3.3 2.3 5.6l.1.5c.2 1 .3 2 .8 2.9l.2.3c.9 1.4 2.6 2.4 5 2.7l1.4.2c1.2.1 2.3.3 3.3.7 2 .9 3.5 3.2 3.9 5.9.3 2.1-.3 4.1-.8 6.3-.5 2.1-1.1 4.3-.9 6.7.3 3.1 1.3 5 2.1 6.7.9 1.8 1.7 3.3 1.7 6.1v.4c-.1 2.2-2.6 6.7-4.7 10.2l-2.3 4.1z"/><path class="st20" d="M88.7 116.8c-3.4 0-6.7-.9-9.7-2.6l-.2-.1a19 19 0 0 1-9.1-16.2v-1h38v1c0 6.4-3.1 12.3-8.4 15.8v.1l-.6.3c-3 1.7-6.4 2.7-10 2.7zm-9-4.6l.2.1a16.8 16.8 0 0 0 17.9-.1l.2-.2a17 17 0 0 0 7.7-13.3h-34a17 17 0 0 0 8 13.5z"/></svg>